<svg xmlns="http://www.w3.org/2000/svg" xmlns:xlink="http://www.w3.org/1999/xlink" viewBox="0 0 4500 3000"><defs id="defs310"><filter id="luminosity-noclip" width="3979.7" height="4456.2" x="201.8" y="-273.4" color-interpolation-filters="sRGB" filterUnits="userSpaceOnUse"><feFlood id="feFlood1" flood-color="#fff" result="bg"/><feBlend id="feBlend1" in="SourceGraphic" in2="bg"/></filter><filter id="luminosity-noclip1" width="3979.7" height="32766" x="201.8" y="-9692" color-interpolation-filters="sRGB" filterUnits="userSpaceOnUse"><feFlood id="feFlood2" flood-color="#fff" result="bg"/><feBlend id="feBlend2" in="SourceGraphic" in2="bg"/></filter><filter id="luminosity-noclip2" width="3979.7" height="4456.2" x="201.8" y="-273.4" color-interpolation-filters="sRGB" filterUnits="userSpaceOnUse"><feFlood id="feFlood3" flood-color="#fff" result="bg"/><feBlend id="feBlend3" in="SourceGraphic" in2="bg"/></filter><filter id="luminosity-noclip3" width="3979.7" height="32766" x="201.8" y="-9692" color-interpolation-filters="sRGB" filterUnits="userSpaceOnUse"><feFlood id="feFlood4" flood-color="#fff" result="bg"/><feBlend id="feBlend4" in="SourceGraphic" in2="bg"/></filter><filter id="luminosity-noclip4" width="3979.7" height="4456.2" x="201.8" y="-273.4" color-interpolation-filters="sRGB" filterUnits="userSpaceOnUse"><feFlood id="feFlood5" flood-color="#fff" result="bg"/><feBlend id="feBlend5" in="SourceGraphic" in2="bg"/></filter><filter id="luminosity-noclip5" width="3979.7" height="32766" x="201.8" y="-9692" color-interpolation-filters="sRGB" filterUnits="userSpaceOnUse"><feFlood id="feFlood6" flood-color="#fff" result="bg"/><feBlend id="feBlend6" in="SourceGraphic" in2="bg"/></filter><filter id="luminosity-noclip6" width="656.6" height="2259.1" x="1726.3" y="785.5" color-interpolation-filters="sRGB" filterUnits="userSpaceOnUse"><feFlood id="feFlood7" flood-color="#fff" result="bg"/><feBlend id="feBlend7" in="SourceGraphic" in2="bg"/></filter><filter id="luminosity-noclip7" width="656.6" height="2259.1" x="1726.3" y="785.5" color-interpolation-filters="sRGB" filterUnits="userSpaceOnUse"><feFlood id="feFlood8" flood-color="#fff" result="bg"/><feBlend id="feBlend8" in="SourceGraphic" in2="bg"/></filter><filter id="luminosity-noclip8" width="656.6" height="2259.1" x="1726.3" y="785.5" color-interpolation-filters="sRGB" filterUnits="userSpaceOnUse"><feFlood id="feFlood9" flood-color="#fff" result="bg"/><feBlend id="feBlend9" in="SourceGraphic" in2="bg"/></filter><filter id="luminosity-noclip9" width="2240.4" height="2009.8" x="-91.7" y="1252.1" color-interpolation-filters="sRGB" filterUnits="userSpaceOnUse"><feFlood id="feFlood10" flood-color="#fff" result="bg"/><feBlend id="feBlend10" in="SourceGraphic" in2="bg"/></filter><filter id="luminosity-noclip10" width="2240.4" height="2009.8" x="-91.7" y="1252.1" color-interpolation-filters="sRGB" filterUnits="userSpaceOnUse"><feFlood id="feFlood11" flood-color="#fff" result="bg"/><feBlend id="feBlend11" in="SourceGraphic" in2="bg"/></filter><filter id="luminosity-noclip11" width="2240.4" height="2009.8" x="-91.7" y="1252.1" color-interpolation-filters="sRGB" filterUnits="userSpaceOnUse"><feFlood id="feFlood12" flood-color="#fff" result="bg"/><feBlend id="feBlend12" in="SourceGraphic" in2="bg"/></filter><filter id="luminosity-noclip12" width="1937.8" height="1786.6" x="2002.6" y="1465.7" color-interpolation-filters="sRGB" filterUnits="userSpaceOnUse"><feFlood id="feFlood13" flood-color="#fff" result="bg"/><feBlend id="feBlend13" in="SourceGraphic" in2="bg"/></filter><filter id="luminosity-noclip13" width="1937.8" height="1786.6" x="2002.6" y="1465.7" color-interpolation-filters="sRGB" filterUnits="userSpaceOnUse"><feFlood id="feFlood14" flood-color="#fff" result="bg"/><feBlend id="feBlend14" in="SourceGraphic" in2="bg"/></filter><filter id="luminosity-noclip14" width="1937.8" height="1786.6" x="2002.6" y="1465.7" color-interpolation-filters="sRGB" filterUnits="userSpaceOnUse"><feFlood id="feFlood15" flood-color="#fff" result="bg"/><feBlend id="feBlend15" in="SourceGraphic" in2="bg"/></filter><filter id="luminosity-noclip15" width="1578.5" height="2831" x="1834.1" y="421.2" color-interpolation-filters="sRGB" filterUnits="userSpaceOnUse"><feFlood id="feFlood16" flood-color="#fff" result="bg"/><feBlend id="feBlend16" in="SourceGraphic" in2="bg"/></filter><filter id="luminosity-noclip16" width="1578.5" height="2831" x="1834.1" y="421.2" color-interpolation-filters="sRGB" filterUnits="userSpaceOnUse"><feFlood id="feFlood17" flood-color="#fff" result="bg"/><feBlend id="feBlend17" in="SourceGraphic" in2="bg"/></filter><filter id="luminosity-noclip17" width="1718.4" height="2904.7" x="579.4" y="504.2" color-interpolation-filters="sRGB" filterUnits="userSpaceOnUse"><feFlood id="feFlood18" flood-color="#fff" result="bg"/><feBlend id="feBlend18" in="SourceGraphic" in2="bg"/></filter><filter id="luminosity-noclip18" width="1718.4" height="2904.7" x="579.4" y="504.2" color-interpolation-filters="sRGB" filterUnits="userSpaceOnUse"><feFlood id="feFlood19" flood-color="#fff" result="bg"/><feBlend id="feBlend19" in="SourceGraphic" in2="bg"/></filter><filter id="luminosity-noclip19" width="1718.4" height="2904.7" x="579.4" y="504.2" color-interpolation-filters="sRGB" filterUnits="userSpaceOnUse"><feFlood id="feFlood20" flood-color="#fff" result="bg"/><feBlend id="feBlend20" in="SourceGraphic" in2="bg"/></filter><filter id="luminosity-noclip20" width="2628.5" height="1735" x="-399.8" y="1761.4" color-interpolation-filters="sRGB" filterUnits="userSpaceOnUse"><feFlood id="feFlood21" flood-color="#fff" result="bg"/><feBlend id="feBlend21" in="SourceGraphic" in2="bg"/></filter><filter id="luminosity-noclip21" width="2628.5" height="1735" x="-399.8" y="1761.4" color-interpolation-filters="sRGB" filterUnits="userSpaceOnUse"><feFlood id="feFlood22" flood-color="#fff" result="bg"/><feBlend id="feBlend22" in="SourceGraphic" in2="bg"/></filter><filter id="luminosity-noclip22" width="2631.8" height="1218.2" x="-661.7" y="2248.1" color-interpolation-filters="sRGB" filterUnits="userSpaceOnUse"><feFlood id="feFlood23" flood-color="#fff" result="bg"/><feBlend id="feBlend23" in="SourceGraphic" in2="bg"/></filter><filter id="luminosity-noclip23" width="2631.8" height="1218.2" x="-661.7" y="2248.1" color-interpolation-filters="sRGB" filterUnits="userSpaceOnUse"><feFlood id="feFlood24" flood-color="#fff" result="bg"/><feBlend id="feBlend24" in="SourceGraphic" in2="bg"/></filter><filter id="luminosity-noclip24" width="2715.8" height="1825" x="2054.4" y="1555.7" color-interpolation-filters="sRGB" filterUnits="userSpaceOnUse"><feFlood id="feFlood25" flood-color="#fff" result="bg"/><feBlend id="feBlend25" in="SourceGraphic" in2="bg"/></filter><filter id="luminosity-noclip25" width="2715.8" height="1825" x="2054.4" y="1555.7" color-interpolation-filters="sRGB" filterUnits="userSpaceOnUse"><feFlood id="feFlood26" flood-color="#fff" result="bg"/><feBlend id="feBlend26" in="SourceGraphic" in2="bg"/></filter><filter id="luminosity-noclip26" width="2715.8" height="1825" x="2054.4" y="1555.7" color-interpolation-filters="sRGB" filterUnits="userSpaceOnUse"><feFlood id="feFlood27" flood-color="#fff" result="bg"/><feBlend id="feBlend27" in="SourceGraphic" in2="bg"/></filter><filter id="luminosity-noclip27" width="2747.5" height="1201" x="2297.5" y="2172" color-interpolation-filters="sRGB" filterUnits="userSpaceOnUse"><feFlood id="feFlood28" flood-color="#fff" result="bg"/><feBlend id="feBlend28" in="SourceGraphic" in2="bg"/></filter><filter id="luminosity-noclip28" width="2747.5" height="1201" x="2297.5" y="2172" color-interpolation-filters="sRGB" filterUnits="userSpaceOnUse"><feFlood id="feFlood29" flood-color="#fff" result="bg"/><feBlend id="feBlend29" in="SourceGraphic" in2="bg"/></filter><filter id="luminosity-noclip29" width="2747.5" height="1201" x="2297.5" y="2172" color-interpolation-filters="sRGB" filterUnits="userSpaceOnUse"><feFlood id="feFlood30" flood-color="#fff" result="bg"/><feBlend id="feBlend30" in="SourceGraphic" in2="bg"/></filter><filter id="luminosity-noclip30" width="2087" height="735.8" x="2177.3" y="2780.9" color-interpolation-filters="sRGB" filterUnits="userSpaceOnUse"><feFlood id="feFlood31" flood-color="#fff" result="bg"/><feBlend id="feBlend31" in="SourceGraphic" in2="bg"/></filter><filter id="luminosity-noclip31" width="2087" height="735.8" x="2177.3" y="2780.9" color-interpolation-filters="sRGB" filterUnits="userSpaceOnUse"><feFlood id="feFlood32" flood-color="#fff" result="bg"/><feBlend id="feBlend32" in="SourceGraphic" in2="bg"/></filter><filter id="luminosity-noclip32" width="2087" height="735.8" x="-245.5" y="2775.1" color-interpolation-filters="sRGB" filterUnits="userSpaceOnUse"><feFlood id="feFlood33" flood-color="#fff" result="bg"/><feBlend id="feBlend33" in="SourceGraphic" in2="bg"/></filter><filter id="luminosity-noclip33" width="2087" height="735.8" x="-245.5" y="2775.1" color-interpolation-filters="sRGB" filterUnits="userSpaceOnUse"><feFlood id="feFlood34" flood-color="#fff" result="bg"/><feBlend id="feBlend34" in="SourceGraphic" in2="bg"/></filter><filter id="luminosity-noclip34" width="2413.9" height="2702.9" x="984.7" y="1087.4" color-interpolation-filters="sRGB" filterUnits="userSpaceOnUse"><feFlood id="feFlood35" flood-color="#fff" result="bg"/><feBlend id="feBlend35" in="SourceGraphic" in2="bg"/></filter><filter id="luminosity-noclip35" width="2413.9" height="32766" x="984.7" y="-9692" color-interpolation-filters="sRGB" filterUnits="userSpaceOnUse"><feFlood id="feFlood36" flood-color="#fff" result="bg"/><feBlend id="feBlend36" in="SourceGraphic" in2="bg"/></filter><filter id="luminosity-noclip36" width="2413.9" height="2702.9" x="984.7" y="1087.4" color-interpolation-filters="sRGB" filterUnits="userSpaceOnUse"><feFlood id="feFlood37" flood-color="#fff" result="bg"/><feBlend id="feBlend37" in="SourceGraphic" in2="bg"/></filter><filter id="luminosity-noclip37" width="2413.9" height="32766" x="984.7" y="-9692" color-interpolation-filters="sRGB" filterUnits="userSpaceOnUse"><feFlood id="feFlood38" flood-color="#fff" result="bg"/><feBlend id="feBlend38" in="SourceGraphic" in2="bg"/></filter><filter id="luminosity-noclip38" width="2413.9" height="2702.9" x="984.7" y="1087.4" color-interpolation-filters="sRGB" filterUnits="userSpaceOnUse"><feFlood id="feFlood39" flood-color="#fff" result="bg"/><feBlend id="feBlend39" in="SourceGraphic" in2="bg"/></filter><filter id="luminosity-noclip39" width="2413.9" height="32766" x="984.7" y="-9692" color-interpolation-filters="sRGB" filterUnits="userSpaceOnUse"><feFlood id="feFlood40" flood-color="#fff" result="bg"/><feBlend id="feBlend40" in="SourceGraphic" in2="bg"/></filter><filter id="luminosity-noclip40" width="55.8" height="53.5" x="2795.5" y="2149.8" color-interpolation-filters="sRGB" filterUnits="userSpaceOnUse"><feFlood id="feFlood41" flood-color="#fff" result="bg"/><feBlend id="feBlend41" in="SourceGraphic" in2="bg"/></filter><filter id="luminosity-noclip41" width="55.8" height="32766" x="2795.5" y="-9692" color-interpolation-filters="sRGB" filterUnits="userSpaceOnUse"><feFlood id="feFlood42" flood-color="#fff" result="bg"/><feBlend id="feBlend42" in="SourceGraphic" in2="bg"/></filter><filter id="luminosity-noclip42" width="6193.4" height="2407.5" x="57.1" y="1409.3" color-interpolation-filters="sRGB" filterUnits="userSpaceOnUse"><feFlood id="feFlood43" flood-color="#fff" result="bg"/><feBlend id="feBlend43" in="SourceGraphic" in2="bg"/></filter><filter id="luminosity-noclip43" width="6193.4" height="32766" x="57.1" y="-9692" color-interpolation-filters="sRGB" filterUnits="userSpaceOnUse"><feFlood id="feFlood44" flood-color="#fff" result="bg"/><feBlend id="feBlend44" in="SourceGraphic" in2="bg"/></filter><filter id="luminosity-noclip44" width="5503.9" height="795" x="-563.5" y="1921.5" color-interpolation-filters="sRGB" filterUnits="userSpaceOnUse"><feFlood id="feFlood45" flood-color="#fff" result="bg"/><feBlend id="feBlend45" in="SourceGraphic" in2="bg"/></filter><filter id="luminosity-noclip45" width="5503.9" height="32766" x="-563.5" y="-9692" color-interpolation-filters="sRGB" filterUnits="userSpaceOnUse"><feFlood id="feFlood46" flood-color="#fff" result="bg"/><feBlend id="feBlend46" in="SourceGraphic" in2="bg"/></filter><filter id="luminosity-noclip46" width="1972.7" height="3389.6" x="1536.5" y="1102.1" color-interpolation-filters="sRGB" filterUnits="userSpaceOnUse"><feFlood id="feFlood47" flood-color="#fff" result="bg"/><feBlend id="feBlend47" in="SourceGraphic" in2="bg"/></filter><filter id="luminosity-noclip47" width="1972.7" height="32766" x="1536.5" y="-9692" color-interpolation-filters="sRGB" filterUnits="userSpaceOnUse"><feFlood id="feFlood48" flood-color="#fff" result="bg"/><feBlend id="feBlend48" in="SourceGraphic" in2="bg"/></filter><filter id="luminosity-noclip48" width="513.1" height="3643.5" x="2065.4" y="790.9" color-interpolation-filters="sRGB" filterUnits="userSpaceOnUse"><feFlood id="feFlood49" flood-color="#fff" result="bg"/><feBlend id="feBlend49" in="SourceGraphic" in2="bg"/></filter><filter id="luminosity-noclip49" width="513.1" height="32766" x="2065.4" y="-9692" color-interpolation-filters="sRGB" filterUnits="userSpaceOnUse"><feFlood id="feFlood50" flood-color="#fff" result="bg"/><feBlend id="feBlend50" in="SourceGraphic" in2="bg"/></filter><filter id="luminosity-noclip50" width="3562.1" height="1752.9" x="407.4" y="1442.5" color-interpolation-filters="sRGB" filterUnits="userSpaceOnUse"><feFlood id="feFlood51" flood-color="#fff" result="bg"/><feBlend id="feBlend51" in="SourceGraphic" in2="bg"/></filter><filter id="luminosity-noclip51" width="3562.1" height="32766" x="407.4" y="-9692" color-interpolation-filters="sRGB" filterUnits="userSpaceOnUse"><feFlood id="feFlood52" flood-color="#fff" result="bg"/><feBlend id="feBlend52" in="SourceGraphic" in2="bg"/></filter><filter id="luminosity-noclip52" width="2195.1" height="1469.4" x="1253.2" y="1641.8" color-interpolation-filters="sRGB" filterUnits="userSpaceOnUse"><feFlood id="feFlood53" flood-color="#fff" result="bg"/><feBlend id="feBlend53" in="SourceGraphic" in2="bg"/></filter><filter id="luminosity-noclip53" width="2195.1" height="32766" x="1253.2" y="-9692" color-interpolation-filters="sRGB" filterUnits="userSpaceOnUse"><feFlood id="feFlood54" flood-color="#fff" result="bg"/><feBlend id="feBlend54" in="SourceGraphic" in2="bg"/></filter><filter id="luminosity-noclip54" width="1562.2" height="1703.6" x="1536.2" y="1503.1" color-interpolation-filters="sRGB" filterUnits="userSpaceOnUse"><feFlood id="feFlood55" flood-color="#fff" result="bg"/><feBlend id="feBlend55" in="SourceGraphic" in2="bg"/></filter><filter id="luminosity-noclip55" width="1562.2" height="32766" x="1536.2" y="-9692" color-interpolation-filters="sRGB" filterUnits="userSpaceOnUse"><feFlood id="feFlood56" flood-color="#fff" result="bg"/><feBlend id="feBlend56" in="SourceGraphic" in2="bg"/></filter><filter id="luminosity-noclip56" width="2191" height="4486.5" x="801.8" y="947.9" color-interpolation-filters="sRGB" filterUnits="userSpaceOnUse"><feFlood id="feFlood57" flood-color="#fff" result="bg"/><feBlend id="feBlend57" in="SourceGraphic" in2="bg"/></filter><filter id="luminosity-noclip57" width="2191" height="32766" x="801.8" y="-9692" color-interpolation-filters="sRGB" filterUnits="userSpaceOnUse"><feFlood id="feFlood58" flood-color="#fff" result="bg"/><feBlend id="feBlend58" in="SourceGraphic" in2="bg"/></filter><filter id="luminosity-noclip58" width="17.8" height="18.3" x="3284.5" y="2436" color-interpolation-filters="sRGB" filterUnits="userSpaceOnUse"><feFlood id="feFlood59" flood-color="#fff" result="bg"/><feBlend id="feBlend59" in="SourceGraphic" in2="bg"/></filter><filter id="luminosity-noclip59" width="17.8" height="32766" x="3284.5" y="-9692" color-interpolation-filters="sRGB" filterUnits="userSpaceOnUse"><feFlood id="feFlood60" flood-color="#fff" result="bg"/><feBlend id="feBlend60" in="SourceGraphic" in2="bg"/></filter><filter id="luminosity-noclip60" width="2002.3" height="436.5" x="1312.9" y="2076" color-interpolation-filters="sRGB" filterUnits="userSpaceOnUse"><feFlood id="feFlood61" flood-color="#fff" result="bg"/><feBlend id="feBlend61" in="SourceGraphic" in2="bg"/></filter><filter id="luminosity-noclip61" width="2002.3" height="32766" x="1312.9" y="-9692" color-interpolation-filters="sRGB" filterUnits="userSpaceOnUse"><feFlood id="feFlood62" flood-color="#fff" result="bg"/><feBlend id="feBlend62" in="SourceGraphic" in2="bg"/></filter><filter id="luminosity-noclip62" width="479.2" height="1704.1" x="2044.5" y="1449.3" color-interpolation-filters="sRGB" filterUnits="userSpaceOnUse"><feFlood id="feFlood63" flood-color="#fff" result="bg"/><feBlend id="feBlend63" in="SourceGraphic" in2="bg"/></filter><filter id="luminosity-noclip63" width="479.2" height="32766" x="2044.5" y="-9692" color-interpolation-filters="sRGB" filterUnits="userSpaceOnUse"><feFlood id="feFlood64" flood-color="#fff" result="bg"/><feBlend id="feBlend64" in="SourceGraphic" in2="bg"/></filter><mask id="mask-1" width="3979.7" height="32766" x="201.8" y="-9692" maskUnits="userSpaceOnUse"/><mask id="mask" width="3979.7" height="4456.2" x="201.8" y="-273.4" maskUnits="userSpaceOnUse"><g filter="url(#luminosity-noclip)"><g mask="url(#mask-1)"><ellipse id="ellipse64" cx="2191.7" cy="1954.7" fill="url(#radial-gradient)" rx="1989.8" ry="2228.1" style="mix-blend-mode:multiply"/></g></g></mask><mask id="mask-3" width="3979.7" height="32766" x="201.8" y="-9692" maskUnits="userSpaceOnUse"/><mask id="mask-2" width="3979.7" height="4456.2" x="201.8" y="-273.4" maskUnits="userSpaceOnUse"><g filter="url(#luminosity-noclip2)"><g mask="url(#mask-3)"><ellipse id="ellipse65" cx="2191.7" cy="1954.7" fill="url(#radial-gradient1)" rx="1989.8" ry="2228.1" style="mix-blend-mode:multiply"/></g></g></mask><mask id="mask-5" width="3979.7" height="32766" x="201.8" y="-9692" maskUnits="userSpaceOnUse"/><mask id="mask-4" width="3979.7" height="4456.2" x="201.8" y="-273.4" maskUnits="userSpaceOnUse"><g filter="url(#luminosity-noclip4)"><g mask="url(#mask-5)"><ellipse id="ellipse67" cx="2191.7" cy="1954.7" fill="url(#radial-gradient2)" rx="1989.8" ry="2228.1" style="mix-blend-mode:multiply"/></g></g></mask><mask id="mask-6" width="656.6" height="2259.1" x="1726.3" y="785.5" maskUnits="userSpaceOnUse"><g filter="url(#luminosity-noclip6)"/></mask><mask id="mask-7" width="656.6" height="2259.1" x="1726.3" y="785.5" maskUnits="userSpaceOnUse"><g filter="url(#luminosity-noclip7)"/></mask><mask id="mask-8" width="656.6" height="2259.1" x="1726.3" y="785.5" maskUnits="userSpaceOnUse"><g filter="url(#luminosity-noclip8)"/></mask><mask id="mask-9" width="2240.4" height="2009.8" x="-91.7" y="1252.1" maskUnits="userSpaceOnUse"><g filter="url(#luminosity-noclip9)"/></mask><mask id="mask-10" width="2240.4" height="2009.8" x="-91.7" y="1252.1" maskUnits="userSpaceOnUse"><g filter="url(#luminosity-noclip10)"/></mask><mask id="mask-11" width="2240.4" height="2009.8" x="-91.7" y="1252.1" maskUnits="userSpaceOnUse"><g filter="url(#luminosity-noclip11)"/></mask><mask id="mask-12" width="1937.8" height="1786.6" x="2002.6" y="1465.7" maskUnits="userSpaceOnUse"><g filter="url(#luminosity-noclip12)"/></mask><mask id="mask-13" width="1937.8" height="1786.6" x="2002.6" y="1465.7" maskUnits="userSpaceOnUse"><g filter="url(#luminosity-noclip13)"/></mask><mask id="mask-14" width="1937.8" height="1786.6" x="2002.6" y="1465.7" maskUnits="userSpaceOnUse"><g filter="url(#luminosity-noclip14)"/></mask><mask id="mask-15" width="1578.5" height="2831" x="1834.1" y="421.2" maskUnits="userSpaceOnUse"><g filter="url(#luminosity-noclip15)"/></mask><mask id="mask-16" width="1578.5" height="2831" x="1834.1" y="421.2" maskUnits="userSpaceOnUse"><g filter="url(#luminosity-noclip16)"/></mask><mask id="mask-17" width="1718.4" height="2904.7" x="579.4" y="504.2" maskUnits="userSpaceOnUse"><g filter="url(#luminosity-noclip17)"/></mask><mask id="mask-18" width="1718.4" height="2904.7" x="579.4" y="504.2" maskUnits="userSpaceOnUse"><g filter="url(#luminosity-noclip18)"/></mask><mask id="mask-19" width="1718.4" height="2904.7" x="579.4" y="504.2" maskUnits="userSpaceOnUse"><g filter="url(#luminosity-noclip19)"/></mask><mask id="mask-20" width="2628.5" height="1735" x="-399.8" y="1761.4" maskUnits="userSpaceOnUse"><g filter="url(#luminosity-noclip20)"/></mask><mask id="mask-21" width="2628.5" height="1735" x="-399.8" y="1761.4" maskUnits="userSpaceOnUse"><g filter="url(#luminosity-noclip21)"/></mask><mask id="mask-22" width="2631.8" height="1218.2" x="-661.7" y="2248.1" maskUnits="userSpaceOnUse"><g filter="url(#luminosity-noclip22)"/></mask><mask id="mask-23" width="2631.8" height="1218.2" x="-661.7" y="2248.1" maskUnits="userSpaceOnUse"><g filter="url(#luminosity-noclip23)"/></mask><mask id="mask-24" width="2715.8" height="1825" x="2054.4" y="1555.7" maskUnits="userSpaceOnUse"><g filter="url(#luminosity-noclip24)"/></mask><mask id="mask-25" width="2715.8" height="1825" x="2054.4" y="1555.7" maskUnits="userSpaceOnUse"><g filter="url(#luminosity-noclip25)"/></mask><mask id="mask-26" width="2715.8" height="1825" x="2054.4" y="1555.7" maskUnits="userSpaceOnUse"><g filter="url(#luminosity-noclip26)"/></mask><mask id="mask-27" width="2747.5" height="1201" x="2297.5" y="2172" maskUnits="userSpaceOnUse"><g filter="url(#luminosity-noclip27)"/></mask><mask id="mask-28" width="2747.5" height="1201" x="2297.5" y="2172" maskUnits="userSpaceOnUse"><g filter="url(#luminosity-noclip28)"/></mask><mask id="mask-29" width="2747.5" height="1201" x="2297.5" y="2172" maskUnits="userSpaceOnUse"><g filter="url(#luminosity-noclip29)"/></mask><mask id="mask-30" width="2087" height="735.8" x="2177.3" y="2780.9" maskUnits="userSpaceOnUse"><g filter="url(#luminosity-noclip30)"/></mask><mask id="mask-31" width="2087" height="735.8" x="2177.3" y="2780.9" maskUnits="userSpaceOnUse"><g filter="url(#luminosity-noclip31)"/></mask><mask id="mask-32" width="2087" height="735.8" x="-245.5" y="2775.1" maskUnits="userSpaceOnUse"><g filter="url(#luminosity-noclip32)"/></mask><mask id="mask-33" width="2087" height="735.8" x="-245.5" y="2775.1" maskUnits="userSpaceOnUse"><g filter="url(#luminosity-noclip33)"/></mask><mask id="mask-35" width="2413.9" height="32766" x="984.7" y="-9692" maskUnits="userSpaceOnUse"/><mask id="mask-34" width="2413.9" height="2702.9" x="984.7" y="1087.4" maskUnits="userSpaceOnUse"><g filter="url(#luminosity-noclip34)"><g mask="url(#mask-35)"><ellipse id="ellipse97" cx="2191.7" cy="2438.9" fill="url(#radial-gradient4)" rx="1206.9" ry="1351.5" style="mix-blend-mode:multiply"/></g></g></mask><mask id="mask-37" width="2413.9" height="32766" x="984.7" y="-9692" maskUnits="userSpaceOnUse"/><mask id="mask-36" width="2413.9" height="2702.9" x="984.7" y="1087.4" maskUnits="userSpaceOnUse"><g filter="url(#luminosity-noclip36)"><g mask="url(#mask-37)"><ellipse id="ellipse99" cx="2191.7" cy="2438.9" fill="url(#radial-gradient5)" rx="1206.9" ry="1351.5" style="mix-blend-mode:multiply"/></g></g></mask><mask id="mask-39" width="2413.9" height="32766" x="984.7" y="-9692" maskUnits="userSpaceOnUse"/><mask id="mask-38" width="2413.9" height="2702.9" x="984.7" y="1087.4" maskUnits="userSpaceOnUse"><g filter="url(#luminosity-noclip38)"><g mask="url(#mask-39)"><ellipse id="ellipse101" cx="2191.7" cy="2438.9" fill="url(#radial-gradient6)" rx="1206.9" ry="1351.5" style="mix-blend-mode:multiply"/></g></g></mask><mask id="mask-41" width="55.8" height="32766" x="2795.5" y="-9692" maskUnits="userSpaceOnUse"/><mask id="mask-40" width="55.8" height="53.5" x="2795.5" y="2149.8" maskUnits="userSpaceOnUse"><g filter="url(#luminosity-noclip40)"><g mask="url(#mask-41)"><path fill="url(#radial-gradient8)" d="M2851 2176c1 15-12 27-27 27s-28-11-28-26 12-27 27-27 28 12 28 26" style="mix-blend-mode:multiply"/></g></g></mask><mask id="mask-43" width="6193.4" height="32766" x="57.1" y="-9692" maskUnits="userSpaceOnUse"/><mask id="mask-42" width="6193.4" height="2407.5" x="57.1" y="1409.3" maskUnits="userSpaceOnUse"><g filter="url(#luminosity-noclip42)"><g mask="url(#mask-43)"><path fill="url(#radial-gradient10)" d="M59 1433c52-130 1481 293 3190 945s3053 1286 3000 1415-1481-293-3190-945C1349 2196 6 1562 59 1433" style="mix-blend-mode:multiply"/></g></g></mask><mask id="mask-45" width="5503.9" height="32766" x="-563.5" y="-9692" maskUnits="userSpaceOnUse"/><mask id="mask-44" width="5503.9" height="795" x="-563.5" y="1921.5" maskUnits="userSpaceOnUse"><g filter="url(#luminosity-noclip44)"><g mask="url(#mask-45)"><path fill="url(#radial-gradient12)" d="M-563 2637c-21-132 1195-381 2715-557 1519-175 2768-211 2788-79 21 132-1195 381-2714 557-1520 175-2769 211-2789 79" style="mix-blend-mode:multiply"/></g></g></mask><mask id="mask-47" width="1972.7" height="32766" x="1536.5" y="-9692" maskUnits="userSpaceOnUse"/><mask id="mask-46" width="1972.7" height="3389.6" x="1536.5" y="1102.1" maskUnits="userSpaceOnUse"><g filter="url(#luminosity-noclip46)"><g mask="url(#mask-47)"><path fill="url(#radial-gradient14)" d="M2300 2913c-531-933-861-1742-738-1807s653 641 1184 1574 861 1743 737 1808-653-641-1183-1575" style="mix-blend-mode:multiply"/></g></g></mask><mask id="mask-49" width="513.1" height="32766" x="2065.4" y="-9692" maskUnits="userSpaceOnUse"/><mask id="mask-48" width="513.1" height="3643.5" x="2065.4" y="790.9" maskUnits="userSpaceOnUse"><g filter="url(#luminosity-noclip48)"><g mask="url(#mask-49)"><path fill="url(#radial-gradient16)" d="M2067 2619c-14-1006 88-1825 229-1828s267 809 281 1815-89 1825-230 1828-266-809-280-1815" style="mix-blend-mode:multiply"/></g></g></mask><mask id="mask-51" width="3562.1" height="32766" x="407.4" y="-9692" maskUnits="userSpaceOnUse"/><mask id="mask-50" width="3562.1" height="1752.9" x="407.4" y="1442.5" maskUnits="userSpaceOnUse"><g filter="url(#luminosity-noclip50)"><g mask="url(#mask-51)"><path fill="url(#radial-gradient18)" d="M2044 2035c980-458 1840-702 1920-545 79 157-651 656-1631 1113-981 458-1840 702-1920 545-79-157 651-656 1631-1113" style="mix-blend-mode:multiply"/></g></g></mask><mask id="mask-53" width="2195.1" height="32766" x="1253.2" y="-9692" maskUnits="userSpaceOnUse"/><mask id="mask-52" width="2195.1" height="1469.4" x="1253.2" y="1641.8" maskUnits="userSpaceOnUse"><g filter="url(#luminosity-noclip52)"><g mask="url(#mask-53)"><path fill="url(#radial-gradient20)" d="M2375 2351c606 406 1087 746 1073 760s-516-304-1122-709c-606-406-1086-746-1072-760s515 304 1121 709" style="mix-blend-mode:multiply"/></g></g></mask><mask id="mask-55" width="1562.2" height="32766" x="1536.2" y="-9692" maskUnits="userSpaceOnUse"/><mask id="mask-54" width="1562.2" height="1703.6" x="1536.2" y="1503.1" maskUnits="userSpaceOnUse"><g filter="url(#luminosity-noclip54)"><g mask="url(#mask-55)"><path fill="url(#radial-gradient22)" d="M2286 2335c431-470 794-843 812-832 17 11-318 402-749 872s-795 843-812 832c-18-12 317-402 749-872" style="mix-blend-mode:multiply"/></g></g></mask><mask id="mask-57" width="2191" height="32766" x="801.8" y="-9692" maskUnits="userSpaceOnUse"/><mask id="mask-56" width="2191" height="4486.5" x="801.8" y="947.9" maskUnits="userSpaceOnUse"><g filter="url(#luminosity-noclip56)"><g mask="url(#mask-57)"><path fill="url(#radial-gradient24)" d="M814 5433c-89-39 325-1074 923-2313S2892 910 2981 949s-325 1075-923 2313S902 5472 814 5433" style="mix-blend-mode:multiply"/></g></g></mask><mask id="mask-59" width="17.8" height="32766" x="3284.5" y="-9692" maskUnits="userSpaceOnUse"/><mask id="mask-58" width="17.8" height="18.3" x="3284.5" y="2436" maskUnits="userSpaceOnUse"><g filter="url(#luminosity-noclip58)"><g mask="url(#mask-59)"><path fill="url(#radial-gradient26)" d="M3302 2445q0 8-8 9-11 0-9-9c2-9 3-9 8-9s9 4 9 9" style="mix-blend-mode:multiply"/></g></g></mask><mask id="mask-61" width="2002.3" height="32766" x="1312.9" y="-9692" maskUnits="userSpaceOnUse"/><mask id="mask-60" width="2002.3" height="436.5" x="1312.9" y="2076" maskUnits="userSpaceOnUse"><g filter="url(#luminosity-noclip60)"><g mask="url(#mask-61)"><path fill="url(#radial-gradient28)" d="M2308 2268c552-119 1004-205 1007-190s-442 123-995 242-1003 205-1007 191 442-123 995-243" style="mix-blend-mode:multiply"/></g></g></mask><mask id="mask-63" width="479.2" height="32766" x="2044.5" y="-9692" maskUnits="userSpaceOnUse"/><mask id="mask-62" width="479.2" height="1704.1" x="2044.5" y="1449.3" maskUnits="userSpaceOnUse"><g filter="url(#luminosity-noclip62)"><g mask="url(#mask-63)"><path fill="url(#radial-gradient30)" d="M2256 2308c-131-470-225-855-210-859s135 375 266 845c132 471 226 855 210 859s-135-374-266-845" style="mix-blend-mode:multiply"/></g></g></mask><linearGradient id="linear-gradient" x1="4174.2" x2="3883.9" y1="2100.6" y2="1406.6" gradientTransform="rotate(-10 5558 -1633)scale(.8)" gradientUnits="userSpaceOnUse"><stop id="stop127" offset="0" stop-color="#c6c6c6"/><stop id="stop128" offset=".5" stop-color="#cddce8"/></linearGradient><linearGradient id="linear-gradient1" x1="1611.8" x2="1384.7" y1="2551" y2="2053.5" gradientTransform="rotate(2 1683 2355)" gradientUnits="userSpaceOnUse"><stop id="stop129" offset="0" stop-color="#c8c8c8"/><stop id="stop130" offset=".3" stop-color="#b7ccde"/><stop id="stop131" offset="1" stop-color="#d1dee9"/></linearGradient><linearGradient id="linear-gradient2" x1="1532.1" x2="1177.9" y1="2702.6" y2="1943.5" gradientTransform="rotate(2 1683 2355)" gradientUnits="userSpaceOnUse"><stop id="stop132" offset="0" stop-color="#c8c8c8"/><stop id="stop133" offset=".5" stop-color="#b7ccde"/><stop id="stop134" offset="1" stop-color="#d1dee9"/></linearGradient><linearGradient id="linear-gradient3" x1="1996.2" x2="1850.6" y1="1177.3" y2="829.2" gradientTransform="rotate(155 2635 571)scale(.6 -.7)" gradientUnits="userSpaceOnUse"><stop id="stop135" offset="0" stop-color="#f0f0f0"/><stop id="stop136" offset=".5" stop-color="#e1f2ff"/></linearGradient><linearGradient xlink:href="#linear-gradient1" id="linear-gradient4" x1="4863.2" x2="4775.1" y1="1337.8" y2="1144.7" gradientTransform="rotate(-8 6204 -4057)scale(.8)"/><linearGradient xlink:href="#linear-gradient2" id="linear-gradient5" x1="4826" x2="4661.5" y1="1428.2" y2="1075.7" gradientTransform="rotate(-8 6204 -4057)scale(.8)"/><linearGradient xlink:href="#linear-gradient2" id="linear-gradient6" x1="-526.3" x2="1005.2" y1="1920.9" y2="1920.9" gradientTransform="rotate(7 652 2120)"/><linearGradient xlink:href="#linear-gradient" id="linear-gradient7" x1="3777.9" x2="3109.8" y1="2794" y2="1481.5"/><linearGradient id="linear-gradient8" x1="4424.3" x2="4210.4" y1="1418.4" y2="3174.4" gradientUnits="userSpaceOnUse"><stop id="stop137" offset="0" stop-color="#a9c76e"/><stop id="stop138" offset=".5" stop-color="#7aa920"/><stop id="stop139" offset="1"/></linearGradient><linearGradient xlink:href="#linear-gradient8" id="linear-gradient9" x1="282.8" x2="113" y1="1508" y2="2902.1"/><linearGradient xlink:href="#linear-gradient8" id="linear-gradient10" x1="4167.6" x2="4002.3" y1="1525.8" y2="2882.1"/><linearGradient xlink:href="#linear-gradient8" id="linear-gradient11" x1="633.8" x2="479.2" y1="1468.6" y2="2736.7"/><linearGradient id="linear-gradient12" x1="4255.7" x2="4101.1" y1="1610.7" y2="2878.9" gradientUnits="userSpaceOnUse"><stop id="stop140" offset="0" stop-color="#709e41"/><stop id="stop141" offset=".5" stop-color="#27581b"/><stop id="stop142" offset="1"/></linearGradient><linearGradient xlink:href="#linear-gradient12" id="linear-gradient13" x1="4002.8" x2="3848.3" y1="1754.2" y2="3022.4"/><linearGradient xlink:href="#linear-gradient12" id="linear-gradient14" x1="4548.8" x2="4378.6" y1="1253.5" y2="2488.2"/><linearGradient xlink:href="#linear-gradient12" id="linear-gradient15" x1="414.5" x2="-116.9" y1="1345.7" y2="2378.9"/><linearGradient xlink:href="#linear-gradient12" id="linear-gradient16" x1="3894.6" x2="3728.3" y1="1652.5" y2="3017.6"/><linearGradient xlink:href="#linear-gradient12" id="linear-gradient17" x1="533.1" x2="431.7" y1="1703.8" y2="2535.6"/><linearGradient xlink:href="#linear-gradient12" id="linear-gradient18" x1="399.4" x2="238.3" y1="1458.5" y2="2780.5"/><linearGradient xlink:href="#linear-gradient12" id="linear-gradient19" x1="816.8" x2="746.1" y1="1831.1" y2="2411.5"/><linearGradient xlink:href="#linear-gradient12" id="linear-gradient20" x1="427.6" x2="356.9" y1="1836" y2="2416.4"/><linearGradient xlink:href="#linear-gradient12" id="linear-gradient21" x1="3346" x2="3301.5" y1="2153.1" y2="2518"/><linearGradient xlink:href="#linear-gradient12" id="linear-gradient22" x1="3591.1" x2="3522.6" y1="2122.7" y2="2685"/><linearGradient xlink:href="#linear-gradient12" id="linear-gradient23" x1="656.2" x2="533.7" y1="1599.3" y2="2604.8"/><linearGradient xlink:href="#linear-gradient12" id="linear-gradient24" x1="951.5" x2="898.6" y1="1971.9" y2="2406.6"/><linearGradient xlink:href="#linear-gradient12" id="linear-gradient25" x1="1373.5" x2="1284.8" y1="2012.5" y2="2740.3"/><linearGradient xlink:href="#linear-gradient8" id="linear-gradient26" x1="3261.6" x2="3185.4" y1="2013" y2="2638.2"/><linearGradient xlink:href="#linear-gradient8" id="linear-gradient27" x1="1268.2" x2="1212.2" y1="2107.7" y2="2567.6"/><linearGradient xlink:href="#linear-gradient8" id="linear-gradient28" x1="767.8" x2="674.3" y1="1730.2" y2="2497.8"/><linearGradient xlink:href="#linear-gradient8" id="linear-gradient29" x1="3911.3" x2="3819.9" y1="1944.6" y2="2694.9"/><linearGradient xlink:href="#linear-gradient8" id="linear-gradient30" x1="3775.9" x2="3684.5" y1="2019" y2="2769.2"/><linearGradient xlink:href="#linear-gradient12" id="linear-gradient31" x1="3664.2" x2="3581.9" y1="1995.5" y2="2671.5"/><linearGradient id="linear-gradient32" x1="-5359.1" x2="-5371" y1="2213.8" y2="2574.6" gradientTransform="translate(8501)" gradientUnits="userSpaceOnUse"><stop id="stop143" offset="0" stop-color="#a8cc62"/><stop id="stop144" offset=".6" stop-color="#427028"/><stop id="stop145" offset=".7" stop-color="#3f6c26"/><stop id="stop146" offset=".8" stop-color="#386022"/><stop id="stop147" offset=".8" stop-color="#2d4c1b"/><stop id="stop148" offset=".9" stop-color="#1d3111"/><stop id="stop149" offset="1" stop-color="#080e05"/><stop id="stop150" offset="1"/></linearGradient><linearGradient xlink:href="#linear-gradient32" id="linear-gradient33" x1="1823.7" x2="1816.1" y1="2346.9" y2="2578.1" gradientTransform="rotate(7 1511 2082)"/><linearGradient id="linear-gradient34" x1="479.6" x2="479.6" y1="2555.1" y2="1973.3" gradientUnits="userSpaceOnUse"><stop id="stop151" offset="0" stop-color="#fff"/><stop id="stop152" offset="0" stop-color="#f8f7e2"/><stop id="stop153" offset="0" stop-color="#eeecba"/><stop id="stop154" offset=".2" stop-color="#e6e399"/><stop id="stop155" offset=".2" stop-color="#e0dc7f"/><stop id="stop156" offset=".3" stop-color="#dcd66d"/><stop id="stop157" offset=".4" stop-color="#d9d362"/><stop id="stop158" offset=".4" stop-color="#d9d35f"/><stop id="stop159" offset="1" stop-color="#3f6310"/></linearGradient><linearGradient xlink:href="#linear-gradient34" id="linear-gradient35" x1="3627.4" x2="3627.4" y1="2720" y2="2311.4" gradientTransform="rotate(-13 3257 2347)"/><linearGradient xlink:href="#linear-gradient34" id="linear-gradient36" x1="4183.6" x2="4183.6" y1="2612.3" y2="2203.7"/><linearGradient xlink:href="#linear-gradient34" id="linear-gradient37" x1="810.6" x2="810.6" y1="2501.1" y2="2092.5"/><linearGradient xlink:href="#linear-gradient34" id="linear-gradient38" x1="1320.4" x2="1320.4" y1="2474.7" y2="2222.7" gradientTransform="rotate(19 1112 2266)"/><linearGradient id="linear-gradient39" x1="3303.5" x2="3303.5" y1="2646.8" y2="2238.2" gradientTransform="rotate(-12 3309 2380)" gradientUnits="userSpaceOnUse"><stop id="stop160" offset="0" stop-color="#fff"/><stop id="stop161" offset="0" stop-color="#edf1e6"/><stop id="stop162" offset="0" stop-color="#cad7b7"/><stop id="stop163" offset=".1" stop-color="#acc08e"/><stop id="stop164" offset=".2" stop-color="#94ad6d"/><stop id="stop165" offset=".2" stop-color="#819f53"/><stop id="stop166" offset=".3" stop-color="#749541"/><stop id="stop167" offset=".4" stop-color="#6c8e36"/><stop id="stop168" offset=".4" stop-color="#6a8d33"/><stop id="stop169" offset="1" stop-color="#084806"/></linearGradient><linearGradient xlink:href="#linear-gradient39" id="linear-gradient40" x1="774.8" x2="774.8" y1="2458.8" y2="2050.2"/><linearGradient id="linear-gradient41" x1="-544.6" x2="-554" y1="2453.8" y2="2429.7" gradientTransform="translate(3353)" gradientUnits="userSpaceOnUse"><stop id="stop170" offset=".1" stop-color="#7d4624"/><stop id="stop171" offset=".3" stop-color="#874f34"/><stop id="stop172" offset=".8" stop-color="#a87960"/></linearGradient><linearGradient xlink:href="#linear-gradient41" id="linear-gradient42" x1="1248.9" x2="1239.5" y1="2484.9" y2="2460.8" gradientTransform="matrix(-1 0 0 1 2733 0)"/><linearGradient xlink:href="#linear-gradient41" id="linear-gradient43" x1="590.6" x2="578.1" y1="2380.8" y2="2348.7"/><linearGradient id="linear-gradient44" x1="243.9" x2="237.5" y1="2482.2" y2="2465.9" gradientTransform="matrix(-1 0 0 1 1826 0)" gradientUnits="userSpaceOnUse"><stop id="stop173" offset=".1" stop-color="#7d4e24"/><stop id="stop174" offset=".3" stop-color="#875734"/><stop id="stop175" offset=".8" stop-color="#a88060"/></linearGradient><linearGradient xlink:href="#linear-gradient32" id="linear-gradient45" x1="-4784.5" x2="-4790.8" y1="2899.3" y2="3092.5"/><radialGradient id="radial-gradient" cx="2260.7" cy="-2225.3" r="1768.8" fx="2260.7" fy="-2225.3" gradientTransform="matrix(-1.1 0 0 -1.3 4735 -848)" gradientUnits="userSpaceOnUse"><stop id="stop176" offset="0" stop-color="#fff"/><stop id="stop177" offset=".1" stop-color="#fff"/><stop id="stop178" offset=".2" stop-color="#e9e9e9"/><stop id="stop179" offset=".4" stop-color="#606060"/><stop id="stop180" offset=".5" stop-color="#4c4c4c"/><stop id="stop181" offset=".6" stop-color="#383838"/><stop id="stop182" offset=".7" stop-color="#1c1c1c"/><stop id="stop183" offset=".9" stop-color="#010101"/><stop id="stop184" offset="1"/></radialGradient><radialGradient id="radial-gradient1" cx="2260.7" cy="-2225.3" r="1768.8" fx="2260.7" fy="-2225.3" gradientTransform="matrix(-1.1 0 0 -1.3 4735 -848)" gradientUnits="userSpaceOnUse"><stop id="stop185" offset=".2" stop-color="#fff"/><stop id="stop186" offset=".3" stop-color="#fff"/><stop id="stop187" offset=".5" stop-color="#fff"/><stop id="stop188" offset=".7" stop-color="#999"/><stop id="stop189" offset="1"/></radialGradient><radialGradient id="radial-gradient2" cx="2260.7" cy="-2225.3" r="1768.8" fx="2260.7" fy="-2225.3" gradientTransform="matrix(-1.1 0 0 -1.3 4735 -848)" gradientUnits="userSpaceOnUse"><stop id="stop190" offset="0" stop-color="#fff"/><stop id="stop191" offset=".6" stop-color="#fff"/><stop id="stop192" offset="1" stop-color="#fff"/><stop id="stop193" offset="1" stop-color="#f9f9f9"/><stop id="stop194" offset="1" stop-color="#ebebeb"/><stop id="stop195" offset="1" stop-color="#d2d2d2"/><stop id="stop196" offset="1" stop-color="#b0b0b0"/><stop id="stop197" offset="1" stop-color="#848484"/><stop id="stop198" offset="1" stop-color="#4f4f4f"/><stop id="stop199" offset="1" stop-color="#111"/><stop id="stop200" offset="1"/></radialGradient><radialGradient id="radial-gradient3" cx="2260.7" cy="-2225.3" r="1768.8" fx="2260.7" fy="-2225.3" gradientTransform="matrix(-1.1 0 0 -1.3 4735 -848)" gradientUnits="userSpaceOnUse"><stop id="stop201" offset="0" stop-color="#fff"/><stop id="stop202" offset=".6" stop-color="#fff"/><stop id="stop203" offset="1" stop-color="#fff"/><stop id="stop204" offset="1" stop-color="#fff"/></radialGradient><radialGradient xlink:href="#radial-gradient" id="radial-gradient4" cx="2260.7" cy="-2609.7" r="1072.9" fx="2260.7" fy="-2609.7"/><radialGradient xlink:href="#radial-gradient1" id="radial-gradient5" cx="2260.7" cy="-2609.7" r="1072.9" fx="2260.7" fy="-2609.7"/><radialGradient xlink:href="#radial-gradient2" id="radial-gradient6" cx="2260.7" cy="-2609.7" r="1072.9" fx="2260.7" fy="-2609.7"/><radialGradient xlink:href="#radial-gradient3" id="radial-gradient7" cx="2260.7" cy="-2609.7" r="1072.9" fx="2260.7" fy="-2609.7"/><radialGradient id="radial-gradient8" cx="-10004.4" cy="150667.9" r="1477.5" fx="-10004.4" fy="150667.9" gradientTransform="matrix(0 0 0 0 2982 -552)" gradientUnits="userSpaceOnUse"><stop id="stop205" offset="0" stop-color="#fff"/><stop id="stop206" offset=".1" stop-color="#fbfbfb"/><stop id="stop207" offset=".3" stop-color="#f0f0f0"/><stop id="stop208" offset=".4" stop-color="#ddd"/><stop id="stop209" offset=".5" stop-color="#c3c3c3"/><stop id="stop210" offset=".6" stop-color="#a2a2a2"/><stop id="stop211" offset=".7" stop-color="#797979"/><stop id="stop212" offset=".9" stop-color="#484848"/><stop id="stop213" offset="1" stop-color="#111"/><stop id="stop214" offset="1"/></radialGradient><radialGradient id="radial-gradient9" cx="-10004.4" cy="150667.9" r="1477.5" fx="-10004.4" fy="150667.9" gradientTransform="matrix(0 0 0 0 2982 -552)" gradientUnits="userSpaceOnUse"><stop id="stop215" offset="0" stop-color="#fff"/><stop id="stop216" offset=".1" stop-color="#fbfbfb"/><stop id="stop217" offset=".3" stop-color="#f0f0f0"/><stop id="stop218" offset=".4" stop-color="#dededd"/><stop id="stop219" offset=".5" stop-color="#c4c4c3"/><stop id="stop220" offset=".6" stop-color="#a3a3a2"/><stop id="stop221" offset=".8" stop-color="#7b7a79"/><stop id="stop222" offset=".9" stop-color="#4c4a49"/><stop id="stop223" offset="1" stop-color="#161412"/></radialGradient><radialGradient id="radial-gradient10" cx="3553.7" cy="-1162.9" r="388" fx="3553.7" fy="-1162.9" gradientTransform="rotate(201 17067 3429)scale(8.5 .7)" gradientUnits="userSpaceOnUse"><stop id="stop224" offset="0" stop-color="#fff"/><stop id="stop225" offset="0" stop-color="#f7f7f7"/><stop id="stop226" offset=".2" stop-color="#e2e2e2"/><stop id="stop227" offset=".3" stop-color="#c1c1c1"/><stop id="stop228" offset=".5" stop-color="#929292"/><stop id="stop229" offset=".7" stop-color="#565656"/><stop id="stop230" offset=".9" stop-color="#0e0e0e"/><stop id="stop231" offset=".9"/></radialGradient><radialGradient id="radial-gradient11" cx="3553.7" cy="-1162.9" r="388" fx="3553.7" fy="-1162.9" gradientTransform="rotate(201 17067 3429)scale(8.5 .7)" gradientUnits="userSpaceOnUse"><stop id="stop232" offset="0" stop-color="#fff"/><stop id="stop233" offset="0" stop-color="#f7f7f7"/><stop id="stop234" offset=".2" stop-color="#e3e3e2"/><stop id="stop235" offset=".4" stop-color="#c2c1c1"/><stop id="stop236" offset=".5" stop-color="#949392"/><stop id="stop237" offset=".7" stop-color="#595756"/><stop id="stop238" offset=".9" stop-color="#161412"/></radialGradient><radialGradient xlink:href="#radial-gradient10" id="radial-gradient12" cx="3678.1" cy="-970.9" r="388" fx="3678.1" fy="-970.9" gradientTransform="rotate(173 14127 167)scale(7.1 .6)"/><radialGradient xlink:href="#radial-gradient11" id="radial-gradient13" cx="3678.1" cy="-970.9" r="388" fx="3678.1" fy="-970.9" gradientTransform="rotate(173 14127 167)scale(7.1 .6)"/><radialGradient id="radial-gradient14" cx="158.8" cy="2641" r="538.1" fx="158.8" fy="2641" gradientTransform="rotate(150 2181 6501)scale(.49964 3.6026)" gradientUnits="userSpaceOnUse"><stop id="stop239" offset="0" stop-color="#fff"/><stop id="stop240" offset=".4" stop-color="gray"/><stop id="stop241" offset=".8"/></radialGradient><radialGradient id="radial-gradient15" cx="158.8" cy="2641" r="538.1" fx="158.8" fy="2641" gradientTransform="rotate(150 2181 6501)scale(.49964 3.6026)" gradientUnits="userSpaceOnUse"><stop id="stop242" offset="0" stop-color="#fff"/><stop id="stop243" offset=".4" stop-color="#828180"/><stop id="stop244" offset=".8" stop-color="#161412"/></radialGradient><radialGradient xlink:href="#radial-gradient14" id="radial-gradient16" cx="69.6" cy="2713.9" r="538.1" fx="69.6" fy="2713.9" gradientTransform="rotate(179 1203 5908)scale(.49997 3.40022)"/><radialGradient xlink:href="#radial-gradient15" id="radial-gradient17" cx="69.6" cy="2713.9" r="538.1" fx="69.6" fy="2713.9" gradientTransform="rotate(179 1203 5908)scale(.49997 3.40022)"/><radialGradient id="radial-gradient18" cx="6194.3" cy="4955.4" r="538.2" fx="6194.3" fy="4955.4" gradientTransform="rotate(245 -2037 10589)scale(.59964 3.60214)" gradientUnits="userSpaceOnUse"><stop id="stop245" offset=".2" stop-color="#fefefe"/><stop id="stop246" offset=".3" stop-color="#f6f6f6"/><stop id="stop247" offset=".3" stop-color="#e0e0e0"/><stop id="stop248" offset=".4" stop-color="#bdbdbd"/><stop id="stop249" offset=".6" stop-color="#8d8d8d"/><stop id="stop250" offset=".7" stop-color="#4e4e4e"/><stop id="stop251" offset=".8" stop-color="#030303"/><stop id="stop252" offset=".8"/></radialGradient><radialGradient id="radial-gradient19" cx="6194.3" cy="4955.4" r="538.2" fx="6194.3" fy="4955.4" gradientTransform="rotate(245 -2037 10589)scale(.59964 3.60214)" gradientUnits="userSpaceOnUse"><stop id="stop253" offset=".2" stop-color="#fff"/><stop id="stop254" offset=".3" stop-color="#f7f7f7"/><stop id="stop255" offset=".3" stop-color="#e2e2e1"/><stop id="stop256" offset=".5" stop-color="#bfbfbe"/><stop id="stop257" offset=".6" stop-color="#8f8f8e"/><stop id="stop258" offset=".7" stop-color="#535250"/><stop id="stop259" offset=".8" stop-color="#161412"/></radialGradient><radialGradient id="radial-gradient20" cx="-48078.4" cy="3034.6" r="393.2" fx="-48078.4" fy="3034.6" gradientTransform="matrix(0 0 2.36982 2.29651 -3121 -6376)" gradientUnits="userSpaceOnUse"><stop id="stop260" offset="0" stop-color="#fff"/><stop id="stop261" offset="0" stop-color="#f6f6f6"/><stop id="stop262" offset=".2" stop-color="#dedede"/><stop id="stop263" offset=".3" stop-color="#b7b7b7"/><stop id="stop264" offset=".5" stop-color="gray"/><stop id="stop265" offset=".7" stop-color="#3c3c3c"/><stop id="stop266" offset=".8"/></radialGradient><radialGradient id="radial-gradient21" cx="-48078.4" cy="3034.6" r="393.2" fx="-48078.4" fy="3034.6" gradientTransform="matrix(0 0 2.36982 2.29651 -3121 -6376)" gradientUnits="userSpaceOnUse"><stop id="stop267" offset="0" stop-color="#fff"/><stop id="stop268" offset="0" stop-color="#f6f6f6"/><stop id="stop269" offset=".2" stop-color="#dedede"/><stop id="stop270" offset=".3" stop-color="#b8b7b7"/><stop id="stop271" offset=".5" stop-color="#838281"/><stop id="stop272" offset=".7" stop-color="#3f3e3c"/><stop id="stop273" offset=".8" stop-color="#161412"/></radialGradient><radialGradient xlink:href="#radial-gradient20" id="radial-gradient22" cx="-51454.9" cy="-543.2" r="393.5" fx="-51454.9" fy="-543.2" gradientTransform="matrix(0 0 1.54962 -2.45126 -762 -1446)"/><radialGradient xlink:href="#radial-gradient21" id="radial-gradient23" cx="-51454.9" cy="-543.2" r="393.5" fx="-51454.9" fy="-543.2" gradientTransform="matrix(0 0 1.54962 -2.45126 -762 -1446)"/><radialGradient xlink:href="#radial-gradient14" id="radial-gradient24" cx="-2901.2" cy="-15860.4" r="538" fx="-2901.2" fy="-15860.4" gradientTransform="rotate(116 -8478 3882)scale(4.6 .3)"/><radialGradient xlink:href="#radial-gradient15" id="radial-gradient25" cx="-2901.2" cy="-15860.4" r="538" fx="-2901.2" fy="-15860.4" gradientTransform="rotate(116 -8478 3882)scale(4.6 .3)"/><radialGradient id="radial-gradient26" cx="40000.3" cy="155738.2" r="537.3" fx="40000.3" fy="155738.2" gradientTransform="matrix(0 0 0 0 2598 -194)" gradientUnits="userSpaceOnUse"><stop id="stop274" offset="0" stop-color="#fff"/><stop id="stop275" offset=".2" stop-color="#fcfcfc"/><stop id="stop276" offset=".4" stop-color="#f4f4f4"/><stop id="stop277" offset=".5" stop-color="#e5e5e5"/><stop id="stop278" offset=".6" stop-color="#d1d1d1"/><stop id="stop279" offset=".7" stop-color="#b7b7b7"/><stop id="stop280" offset=".8" stop-color="#979797"/><stop id="stop281" offset=".8" stop-color="#707070"/><stop id="stop282" offset=".9" stop-color="#444"/><stop id="stop283" offset="1" stop-color="#131313"/><stop id="stop284" offset="1"/></radialGradient><radialGradient id="radial-gradient27" cx="40000.3" cy="155738.2" r="537.3" fx="40000.3" fy="155738.2" gradientTransform="matrix(0 0 0 0 2598 -194)" gradientUnits="userSpaceOnUse"><stop id="stop285" offset="0" stop-color="#fff"/><stop id="stop286" offset=".2" stop-color="#fcfcfc"/><stop id="stop287" offset=".4" stop-color="#f4f4f4"/><stop id="stop288" offset=".5" stop-color="#e6e6e5"/><stop id="stop289" offset=".6" stop-color="#d2d1d1"/><stop id="stop290" offset=".7" stop-color="#b8b7b7"/><stop id="stop291" offset=".8" stop-color="#989797"/><stop id="stop292" offset=".8" stop-color="#737170"/><stop id="stop293" offset=".9" stop-color="#484645"/><stop id="stop294" offset="1" stop-color="#181614"/><stop id="stop295" offset="1" stop-color="#161412"/></radialGradient><radialGradient xlink:href="#radial-gradient20" id="radial-gradient28" cx="-55302.5" cy="2846.3" r="303.6" fx="-55302.5" fy="2846.3" gradientTransform="matrix(0 0 3.299 -.82253 -8249 -408)"/><radialGradient xlink:href="#radial-gradient21" id="radial-gradient29" cx="-55302.5" cy="2846.3" r="303.6" fx="-55302.5" fy="2846.3" gradientTransform="matrix(0 0 3.299 -.82253 -8249 -408)"/><radialGradient xlink:href="#radial-gradient20" id="radial-gradient30" cx="-44695.5" cy="-756.4" r="303.6" fx="-44695.5" fy="-756.4" gradientTransform="matrix(0 0 -.68683 -2.8175 -2461 1193)"/><radialGradient xlink:href="#radial-gradient21" id="radial-gradient31" cx="-44695.5" cy="-756.4" r="303.6" fx="-44695.5" fy="-756.4" gradientTransform="matrix(0 0 -.68683 -2.8175 -2461 1193)"/><clipPath id="clippath"><path d="M0 0h4500v2495H0z" class="st0"/></clipPath><clipPath id="clippath-1"><path d="M0 0h4500v3000H0z" class="st0"/></clipPath><clipPath id="clippath-2"><path d="M0 0h4500v2041H0z" class="st0"/></clipPath><clipPath id="clippath-3"><path d="M0 0h4500v2499H0z" class="st0"/></clipPath><clipPath id="clippath-4"><path d="M0 0h4501v2365H0z" class="st0"/></clipPath><clipPath id="clippath-5"><path d="M0 0h4500v2581H0z" class="st0"/></clipPath><clipPath id="clippath-6"><path d="M0 0h4500v3000H0z" class="st0"/></clipPath><clipPath id="clippath-7"><path d="M0 0h1116v2703H0z" class="st0"/></clipPath><clipPath id="clippath-8"><path d="M0 0h717v1788H0z" class="st0"/></clipPath><clipPath id="clippath-9"><path d="M4500 2552h-931V0h931z" class="st0"/></clipPath><clipPath id="clippath-10"><path d="M4500 1747h-583V0h583z" class="st0"/></clipPath><clipPath id="clippath-11"><path d="M2718 1877h1782v920H2718z" class="st0"/></clipPath><clipPath id="clippath-12"><path d="M0 1207h360v1296H0z" class="st0"/></clipPath><clipPath id="clippath-13"><path d="M3986 1474h514v990h-514z" class="st0"/></clipPath><clipPath id="clippath-14"><path d="M0 1519h459v1053H0z" class="st0"/></clipPath><clipPath id="clippath-15"><path d="M0 2365h4500v635H0z" class="st0"/></clipPath><style id="style310">.st0{fill:none}.st10{fill:#f8eb8c}.st14{fill:#f6ff9f}.st37{fill:#604a3a}.st61{fill:#4f1e04}.st190{fill:#8bb261}.st228{fill:#dcf27a}.st241{fill:#afb301}.st249{fill:#a5cd6d}.st254{fill:#cbc92f}.st255{fill:#ecdb33}.st294{fill:#6d3f05}.st299{fill:#514531}</style></defs><g style="isolation:isolate"><g id="big_tree1" clip-path="url(#clippath-7)" transform="translate(-46)"><path fill="#f4fd8a" d="M546-168c-22-66-100-79-166-60-40 11-61 39-95 57-35 17-68 8-105 17C117-139 56-82 32-24 21 4 29 116 93 74c-247 164 90 341 177 100-6 103 129 94 203 82 128-21 187-100 213-219 217 108 93-340-12-159 33-27 25-90-14-103-26-9-123 27-113 63z"/><path d="M-79 1879c20-266 25-515-6-775-32-272 0-541 2-813q-1-181-13-362h31l-1 71c-3 57 6 123 19 174C-23 164 0 58 12 20l27-88 30 1C29 75-13 223-42 371c-33 166-20 393-3 562 10 104 32 205 51 304 8 43 20 149 43 169 56-142 122-290 165-446 15-58 36-119 44-182 7-54 7-100 2-154-9-98-15-202-18-301-2-62-4-129-24-182C188 63 142 3 105-67l39 1q23 39 48 74c16 23 35 46 49 72 9 16 15 53 29 58 15 5 36-39 45-56 21-41 40-96 56-146l22 1Q370-3 351 59c-23 79-66 144-68 235-2 70 10 134 13 202q1 41 7 80c8 49 18 40 39 13q33-39 59-91c23-48 31-97 34-156 1-33 5-70 0-101q-6-40-13-79c-2-10-13-68-1-68q4 33 10 66l6 37c1 9 2 23 5 29 7-8 10-32 16-45l22-38c16-25 32-45 43-75 3-8 5-20 10-25 2-3-1 14-2 16l-7 19q-8 19-18 35c-14 22-29 42-38 70q-16 48-17 102c-1 14-3 54 4 64 7 9 17-4 22-13 16-23 26-56 38-85q33-87 62-178 18-62 33-128h17q-7 38-12 76c-2 11-5 116-6 116C668 89 731 9 789-54l54 1c-39 43-83 84-123 127-21 23-43 41-64 64a874 874 0 0 0-154 232c-29 58-51 127-81 186-29 59-61 115-87 178-25 59-39 132-58 197-65 221-141 430-208 651-79 263 4 552-13 826q-3 64-34 112c-33 49-127-6-173-8-7-73 22-172 32-245q26-192 41-388z" class="st294"/><path d="m25 1578 10 6 18 4q10 1 22-3-17 11-34 6-11-3-16-13m-74 141q7 6 15 10 16 6 31 6 18 2 36-3c-19 8-36 16-56 9q-18-6-26-22m12 194 16 10q14 5 30 6 18 2 36-3c-18 8-36 16-55 9q-19-6-27-22m-59 130 15 10q16 5 31 6 18 2 36-3c-19 8-36 16-56 9q-18-6-26-22zm75-621 9 6 19 4q10 1 21-3-16 10-33 6-12-4-16-13zm71-89 9 6q9 4 18 4 12 0 22-2c-11 5-22 10-33 6q-12-5-16-14z" class="st299"/><path d="M226 155c78-23 39-146 13-193-35-60-133-89-204-86-83 3-99 85-168 83l-17-2c-38-8-78-34-115-23-57 17-50 89-111 100-48 9-82-31-120 15-35 42 18 112-22 150-36 34-143-20-191 38-29 35-16 108 34 120-49 31-18 128 28 152 64 35 129-24 189-9 54 14 45 68 124 57 57-8 78-48 117-73 51 78 137-14 175-47 41 48 122 118 198 98 18-5 34-18 43-31 44 35 126 48 171 16 68-49-7-112-42-155 167-25 24-247-102-210" class="st190"/><path d="M-485 413q4 19 13 39c14 28 37 53 69 56-31 20-15 81 7 103 13 13 37 24 55 26 10 2 29-8 37-4 6 3 10 19 14 25q18 25 47 33c33 8 73-1 85-36 31 26 40 46 86 42 33-2 76-17 76-56q23 22 51 37 40 20 82 11c26-7 52-39 54-68v-6q-1-18-17-31 36 9 56-7c34-22 37-80 9-118 36-15 70-51 67-93-4-54-56-80-102-70 1-19 17-36 20-55 6-31-12-66-32-89q-45-50-112-54c-30-1-83-5-97 28-3-20-19-43-31-55-23-23-57-28-88-30q-34-3-66 7a78 78 0 0 0-35 28q-27 20-43 51c-35-70-139-27-174 22q-32 44-28 90-2 37 27 60c16 25 3 28-16 53a69 69 0 0 0-14 61z" class="st249"/><path d="M-468 418q3 20 13 39c11-9 18-26 30-34 11-7 27-5 38-13 21-14 35-50 12-70 36 31 123 0 89-54 35 12 73 23 110 23 12-1 65-7 61-30 4 22 45 78 63 38-22 19-3 80 17 95 25 19 59 4 88 9-4 48-51 83-52 131 0 52 38 62 80 71 41 9 16 36-9 60q39 21 82 11c38-10 77-73 37-104 83 20 105-72 65-125 36-15 70-52 67-94-4-53-56-80-102-70 1-19 17-35 20-54 6-31-12-66-32-89q-45-51-112-54c-30-2-83-6-97 28-2-21-19-44-31-56-23-22-57-27-88-29-29-2-60-1-84 17l-17 17q-26 20-43 51c-35-70-139-27-174 22q-32 45-27 90-3 37 26 61c16 24 3 27-16 52a69 69 0 0 0-14 61z" class="st228"/><path d="M77 354q14-1 28 4 14 6 25 17 9 9 16 23 7 13 8 28 1 11-2 22 11 5 18 14 11 12 15 24a89 89 0 0 1 3 54q-4 13-13 24-9 10-22 14-14 3-26 1 13 2 25-4 12-4 19-15 6-9 8-22 2-12 0-24-9-45-55-54 13-26 2-53-11-20-29-33a61 61 0 0 0-33-10H51q11-7 25-10z" class="st14"/><path d="M-185 54c75-6 165 11 159 98 23-18 50-38 81-30 10 2 18 10 16 16 32-11 86 9 104 30 19 23 34 67 30 97-3 22-30 35-32 52 19 1 102-8 106 19 3 26-54 16-68 14 29 10 66 38 53 74-5 14-29 35-44 38-8 2-15-3-24-3 24 18 59 45 63 76q2 21-11 48c33-23 37-80 8-118 37-15 70-52 67-94-4-53-56-80-102-70 1-19 17-35 20-54 6-31-12-66-32-89q-45-51-112-54c-30-2-83-6-97 28-2-21-19-44-31-56-23-22-57-27-88-29q-34-4-66 7" class="st14"/><path d="M200 238q3 15 11 30c11 22 29 41 55 43-25 16-12 63 6 80 10 9 29 18 44 20 8 1 23-7 30-4 4 2 7 15 11 19q13 21 38 26c26 6 58-1 68-27 25 20 32 35 69 32 27-2 61-13 61-44q18 18 41 29 31 16 65 8c21-5 43-29 44-52v-4q-1-13-14-24 29 7 46-5c27-18 29-61 6-91 30-11 57-40 54-72-3-41-45-61-82-54 1-14 14-27 17-42 4-23-10-50-26-68Q708-1 653-4c-24-1-66-4-77 22-2-16-15-34-25-43-18-17-46-21-71-23q-27-3-53 6a65 65 0 0 0-28 21q-22 16-34 39C336-36 253-3 225 35a94 94 0 0 0-22 69q-1 29 21 46c13 19 3 22-12 41a52 52 0 0 0-12 47z" class="st249"/><path d="M214 242q3 15 10 30c9-7 15-20 24-26 9-5 22-4 31-10 17-11 28-39 10-54 29 24 98 0 71-41q43 15 88 17c10 0 53-5 49-23 3 17 36 60 51 30-18 14-3 61 13 72 21 15 48 4 71 8-3 36-41 63-41 100-1 41 30 48 64 55 33 7 13 27-7 46q31 16 65 9c31-8 62-57 30-81 66 16 84-54 52-95 29-12 56-40 54-72-4-42-45-62-82-54 1-15 14-27 16-42 4-24-9-51-26-69Q721 4 667 1c-24-1-67-4-78 21-2-16-15-33-25-42-18-18-45-22-70-23-23-2-48-1-68 13l-13 13q-21 16-35 40C350-31 267 2 238 39a94 94 0 0 0-21 69q-2 29 21 47c13 19 3 21-13 41a52 52 0 0 0-11 46z" class="st228"/><path d="M651 194q12-1 23 3 12 4 20 12 8 7 13 18 6 10 6 21 1 9-1 17 8 5 14 12a61 61 0 0 1 17 39q0 11-2 20-3 10-10 19-8 8-18 11h-21q11 1 20-2 9-4 15-12t7-17v-18q-8-35-44-42 9-20 1-40-8-17-23-26a50 50 0 0 0-27-8h-10q8-7 20-7z" class="st14"/><path d="M441-38c60-4 132 9 128 76 18-14 40-29 65-23 7 1 14 7 12 12 26-8 69 7 83 24 16 17 28 51 25 74-3 17-25 27-26 40 15 1 82-6 85 15 2 20-43 12-54 10 23 8 53 29 42 57-4 11-24 27-35 29-7 2-12-2-20-2 20 14 48 35 51 58 2 10-2 25-9 37 27-17 30-61 7-90 29-12 56-40 54-72-4-41-45-62-82-54 1-15 14-27 16-42 4-24-10-51-26-68Q721 4 667 1c-24-1-67-4-78 21-2-15-15-33-25-42-18-17-45-21-70-23q-27-3-53 5Z" class="st14"/><path d="M-351 925q4 15 13 32c12 24 34 44 64 46-29 17-14 68 7 86 12 11 34 20 51 22 9 1 27-7 35-4 5 2 9 16 12 21q17 21 45 28c30 6 68-1 79-30 29 22 37 38 80 35 31-2 71-14 71-47q21 19 48 31 36 17 76 9c24-5 49-31 50-56v-5q-1-14-16-25 33 7 53-6c31-18 34-65 7-97 34-12 66-42 63-77-4-44-53-66-96-58 1-16 16-29 19-45 5-26-11-55-30-74q-42-41-105-45c-28-1-77-4-90 23-2-17-18-36-29-46-21-18-53-22-82-24q-31-3-61 5a73 73 0 0 0-33 23q-25 17-40 42c-33-58-130-22-163 18q-31 36-25 74-2 31 25 50c15 21 3 23-15 44a52 52 0 0 0-13 50z" class="st249"/><path d="M-335 930q3 15 12 32c10-8 17-22 28-28 10-6 25-5 36-11 19-12 32-42 11-58 34 26 114 1 83-44 32 10 68 19 102 18 12 0 61-5 57-24 4 18 42 65 59 32-20 15-3 66 16 78 24 16 55 3 82 8-3 39-47 68-48 108 0 43 36 51 75 59 38 7 15 29-8 50q37 17 76 9c36-9 72-61 34-87 77 17 98-58 61-102 34-13 65-43 62-78-4-44-53-66-96-58 2-15 17-29 20-45 4-25-12-54-31-73q-41-42-105-45c-28-1-77-5-90 23-2-17-18-36-29-46-21-19-53-23-82-25-27-2-56 0-78 14l-16 14q-25 17-40 43c-33-58-130-23-163 17q-30 38-25 75-2 30 25 50c15 20 3 23-15 43a52 52 0 0 0-13 50z" class="st228"/><path d="M173 878q13-1 27 4 13 4 23 13 9 8 15 19t8 23q0 9-2 18a62 62 0 0 1 31 32 67 67 0 0 1 3 45q-4 11-12 19-9 9-21 12t-24 1q12 0 23-3a38 38 0 0 0 26-31q2-10-1-20-8-37-51-44 12-23 1-44-9-17-27-28a62 62 0 0 0-31-8h-12q10-6 24-8z" class="st14"/><path d="M-71 629c69-4 154 10 148 81 21-14 47-31 76-24q15 4 14 13c30-9 80 8 97 26 18 18 32 55 29 80-3 18-28 28-30 42 17 1 95-6 98 17 3 21-50 13-63 10 28 9 62 32 50 62-5 11-28 28-41 31-8 2-14-2-23-2 23 14 56 37 59 62 2 11-2 27-10 40 32-19 34-66 8-97 34-13 65-43 62-77-4-45-53-67-96-59 1-15 17-29 20-44 4-26-12-55-31-74q-41-42-105-45c-28-1-77-4-90 23-2-17-18-36-29-46-21-18-53-23-82-24q-31-4-61 5" class="st14"/></g><g id="big_tree2" clip-path="url(#clippath-8)"><path fill="#f6e35f" d="M351-111c-14-43-65-52-107-40-26 8-39 26-61 38-22 11-43 5-67 11-41 10-80 48-95 86-7 19-2 93 39 65-159 108 58 225 114 66-4 68 82 62 130 54 82-14 120-66 137-144 139 71 60-226-8-105 21-18 16-60-9-69-16-6-79 18-72 42z"/><path d="M-51 1243c13-176 16-340-3-513-21-179 0-357 1-537q-1-121-8-240h19V0c-2 38 3 81 12 115 15-7 30-76 38-102l17-58h19C19 50-8 147-27 245c-21 111-13 261-2 372 7 69 21 136 33 202 5 28 13 98 28 111 36-94 78-192 105-295 11-38 24-79 29-120 5-36 4-66 1-102-6-65-10-134-12-199-1-41-2-85-15-121C121 42 92 2 67-44h26q14 26 30 49c16 23 23 31 32 48 6 10 9 35 18 38 10 4 23-25 29-37 14-27 26-64 36-96h14q-14 40-26 81c-15 52-43 95-45 155-1 47 7 89 9 134q0 27 4 53c5 32 12 26 26 9q21-27 38-61 20-46 21-103c1-21 3-46 1-67l-9-52c-1-6-8-45-1-44q2 22 6 43l4 24q0 11 4 20c4-6 6-22 10-30l14-26c10-16 20-29 28-49q2-10 6-17l-1 11-4 12-12 24q-15 20-25 46-10 32-11 68c0 9-1 35 3 41 4 7 11-2 14-8 10-15 17-37 24-56q22-57 40-118 13-41 21-85l11 1-8 50-3 76c38-31 78-84 116-126l34 1-79 84q-21 21-41 42a577 577 0 0 0-99 153c-19 39-33 85-52 124q-30 56-56 117c-16 40-25 88-37 131-42 146-91 284-134 431-51 174 3 365-8 546q-3 41-22 74c-21 32-82-4-111-5-4-49 14-114 21-163q16-126 26-256Z" class="st61"/><path d="m16 1044 6 4 12 2q7 1 14-1-10 6-22 4-6-3-10-9m-48 93 10 7 20 4q12 1 23-3c-12 6-23 11-36 7q-11-4-17-15Zm8 128 10 7 20 4q12 1 23-2c-12 5-23 10-36 6q-11-4-17-15Zm-38 86 10 7 20 4q12 1 23-2c-12 5-23 10-36 6q-11-4-17-15Zm48-410 6 4 12 2 14-1q-10 6-21 3-8-2-11-9m46-58 6 4 12 2q6 1 14-1-11 6-22 4-6-3-10-9" class="st37"/><path d="M145 102c50-15 25-96 8-127-22-40-85-59-131-57-53 2-63 56-108 55l-10-2c-25-5-50-22-75-15-36 11-32 59-71 66-31 7-53-20-77 10-23 28 12 75-14 100-23 22-92-14-123 24-19 24-10 72 22 80-32 21-11 85 18 101 41 23 83-16 122-6 34 8 29 44 80 37 36-5 49-31 75-48 33 52 88-9 112-31 26 31 78 78 127 65q19-6 28-21c28 24 81 32 109 11 44-32-4-74-26-103 107-16 15-163-66-139" class="st241"/><path d="m-312 273 9 26c9 19 23 35 44 37-20 13-10 54 5 68 8 9 23 16 35 18 6 0 18-6 24-3 3 1 6 12 9 16q11 17 30 22c21 6 47-1 54-23 20 17 26 30 55 27 22-1 50-11 50-37q14 15 33 25 25 13 52 7c17-5 34-26 35-45v-4q-1-12-11-21 23 5 36-4c22-15 24-53 6-78 23-10 45-34 43-62-3-35-36-53-66-46 1-13 11-24 13-36 4-21-7-44-21-59a98 98 0 0 0-72-36c-19-1-53-4-62 18-1-13-12-28-20-36-14-15-36-18-56-20q-22-3-42 5a51 51 0 0 0-23 18q-17 14-28 34c-22-46-89-18-112 14a86 86 0 0 0-17 60q-2 25 17 40c10 16 2 18-11 35q-13 17-9 40Z" class="st254"/><path d="m-301 277 9 26c7-7 12-18 19-23s17-4 24-9c14-9 23-33 8-46 23 21 79 0 57-35q35 12 71 14c8 0 42-4 39-19 3 14 29 51 41 25-14 12-2 53 11 62 16 13 37 3 56 7-2 31-33 54-33 86-1 35 24 41 51 47s11 24-5 40q25 14 52 7c25-6 50-48 24-69 53 14 67-47 41-82 24-10 46-34 44-62-3-36-37-53-66-47 1-12 11-23 13-36 4-20-8-43-21-58a98 98 0 0 0-72-36C43 68 9 65 0 87c-1-13-12-28-20-36-15-15-37-18-56-20-19-1-39 0-54 12q-7 5-11 11-18 14-28 34c-23-46-89-18-112 14a86 86 0 0 0-17 60q-2 25 17 40c10 16 2 18-11 35q-14 17-9 40Z" class="st255"/><path d="M49 234q10 0 19 3c9 3 11 6 15 11a55 55 0 0 1 16 34l-1 14q6 3 12 10t9 16l4 17-2 18q-2 9-8 16c-6 7-9 7-15 9s-11 2-16 1q8 0 16-3t12-10c4-7 5-9 6-14l-1-16q-5-30-35-36 8-17 1-35-6-13-18-22a39 39 0 0 0-22-7l-8 1q7-6 16-7Z" class="st10"/><path d="M-119 36c48-4 106 7 103 64 14-11 32-25 52-19q11 3 9 10c21-7 56 7 67 21 13 15 22 44 20 64-2 14-20 22-21 34 12 1 66-5 68 13 2 17-35 10-43 9 18 6 42 25 34 49-4 9-19 23-29 25q-7 0-15-2c16 11 38 30 40 50q2 14-7 32c22-15 24-53 5-78 24-10 46-34 43-62-2-35-36-53-65-46 1-13 11-24 13-36 3-21-8-44-21-59a98 98 0 0 0-72-36C43 68 9 65 0 87c-2-13-12-28-20-36-15-15-37-18-56-20q-23-3-43 5Z" class="st10"/><path d="M129 157q2 11 6 20c8 15 19 28 36 29-16 10-8 41 4 53 6 6 19 12 28 13 5 0 15-4 19-2 3 1 5 9 7 12q9 13 25 17c17 4 37 0 43-18 16 13 21 23 44 22 18-2 40-9 40-29q12 11 26 19 21 10 42 5c14-3 28-19 28-34v-3q0-10-9-16 19 4 30-3c17-12 19-41 4-60 19-8 36-27 34-48-2-27-28-41-52-36 0-9 9-17 10-27 3-16-6-34-16-45a80 80 0 0 0-58-28c-16-1-43-3-50 14-1-10-10-22-16-28q-19-15-45-15-18-2-34 3a42 42 0 0 0-18 14q-14 11-23 27c-18-36-72-14-90 11a64 64 0 0 0-14 45q0 19 14 31c8 13 2 14-8 27q-11 13-8 31Z" class="st254"/><path d="m137 160 7 20q8-9 16-17c5-4 13-3 19-7 11-7 18-26 6-36 19 16 64 1 46-27q28 11 57 11c6 0 34-3 31-15 2 12 23 40 33 20-11 10-2 40 9 48 13 10 30 2 45 5-2 24-26 42-27 66 0 27 20 32 42 37 21 4 8 18-5 30q20 11 42 6c20-5 40-37 19-53 43 10 54-37 34-64 18-8 36-26 34-47-2-28-29-41-53-36 1-10 9-18 11-28 3-15-6-33-17-45a80 80 0 0 0-58-27c-15-1-43-3-50 14-1-11-9-22-15-28-12-12-30-14-46-15q-24-4-43 8l-9 9q-13 11-22 26c-18-36-72-14-90 11a64 64 0 0 0-14 46q-1 19 14 30c8 13 1 15-9 27q-10 14-7 31" class="st255"/><path d="M418 128q8-1 15 2 9 4 13 8 6 6 8 12l4 14q1 6-1 11a36 36 0 0 1 17 20q3 7 3 14l-1 13q-2 7-6 12-6 6-12 8-8 2-13 0 6 1 13-2 6-2 9-7 4-6 5-12v-12q-5-22-29-27 7-13 1-27-4-11-15-17a33 33 0 0 0-17-5h-7q7-5 13-5Z" class="st10"/><path d="M283-25c39-3 85 6 82 50 12-9 26-19 42-15q9 3 8 8c17-6 45 5 54 15 10 12 17 34 15 50-1 11-15 17-16 26 10 1 53-4 54 10 2 13-27 8-34 7 15 5 34 19 27 37-3 7-15 18-23 20q-5 0-12-2c13 9 31 23 32 39q1 10-5 24c17-11 19-40 4-60 19-7 36-26 34-47-2-27-29-41-52-36 0-9 9-18 10-28 3-15-6-33-16-45a80 80 0 0 0-58-27c-16-1-43-3-50 14-2-10-10-22-16-28-12-12-30-14-46-15q-17-2-33 3Z" class="st10"/><path d="m-226 612 9 21c8 16 21 29 41 31-19 11-9 44 4 56 8 7 22 14 33 15 6 0 17-5 22-3 4 2 6 11 9 14q10 14 28 18c20 5 44 0 51-19 18 14 24 25 51 23 20-1 46-9 46-31q13 12 31 21 23 10 49 6c15-4 31-21 32-37v-4q-1-9-10-16 22 4 34-4c20-13 22-44 5-65 21-8 42-28 40-51-3-29-34-44-62-38 1-10 11-19 13-30 3-17-8-36-20-49a97 97 0 0 0-67-29c-18-1-50-3-58 15-2-11-12-24-19-31q-23-16-53-16-20-2-39 4l-11 5-10 10q-17 11-26 28c-21-39-84-15-105 11a65 65 0 0 0-16 50q-1 20 16 33c10 13 2 15-9 29q-14 14-9 33Z" class="st254"/><path d="M-215 615q2 10 8 21c6-5 11-14 18-18 6-4 16-3 23-8 12-7 20-27 7-38 21 17 73 1 53-29q32 12 66 13c7 0 39-4 36-17 3 12 27 43 38 22-13 10-2 43 10 51 16 11 36 3 53 5-2 27-30 46-31 72 0 29 23 34 48 39s10 19-5 33q23 11 49 6c23-6 47-40 22-57 50 11 63-39 39-68 22-8 42-28 40-51-2-29-34-44-61-39 1-10 10-19 12-29 3-17-7-36-19-49a97 97 0 0 0-68-30c-18 0-50-3-58 15-1-11-11-23-19-30-13-12-34-15-52-16q-28-5-51 9l-10 9q-15 12-26 28c-21-38-83-15-104 12a65 65 0 0 0-16 49q-2 20 16 33c9 14 2 15-10 29q-12 14-8 33Z" class="st255"/><path d="M111 581q9-1 17 2c9 3 11 5 15 9a46 46 0 0 1 15 28l-1 12 11 8a43 43 0 0 1 12 28q1 6-2 14c-3 8-3 9-7 13s-8 7-13 8h-16q8 1 15-2 9-3 11-8 4-7 5-12v-13q-5-24-33-29 8-15 1-29-6-12-17-19a41 41 0 0 0-20-5h-8q7-5 15-5Z" class="st10"/><path d="M-46 416c45-3 99 7 96 54 13-9 30-21 48-16q11 3 9 8c20-5 52 6 63 17 11 13 20 37 18 53-2 12-18 19-19 28 11 1 61-4 63 11 2 14-32 9-40 7 17 6 39 21 32 41-3 8-18 19-27 21q-7 0-14-2c15 10 35 25 38 42q1 12-7 26c20-12 22-44 5-65 22-8 42-28 40-51-3-29-34-43-61-38 0-10 10-19 12-30 3-17-7-36-20-48a97 97 0 0 0-67-30c-18-1-50-3-58 15-1-11-11-24-19-30-13-13-34-15-52-17q-21-2-40 4Z" class="st10"/></g><g id="big_tree_3" clip-path="url(#clippath-9)"><path d="M3887-67c-65-23-31-141-8-185 30-57 112-83 171-79 70 5 82 84 139 83l14-1c32-7 66-32 97-20 47 17 40 86 91 98 39 10 69-28 100 17 28 41-17 107 16 145 29 33 119-18 158 39 24 34 12 104-30 115 41 30 13 123-25 145-54 32-108-26-158-12-45 11-39 64-105 51-47-8-63-47-96-71-44 74-114-17-145-49-35 45-104 111-167 90q-24-9-35-31c-37 34-106 44-143 13-56-48 8-108 38-148-140-28-17-238 88-200Z" class="st241"/><path d="M4770 1679c-46-250-77-486-80-738-3-262-59-513-89-772q-20-174-29-346l-25 4q2 32 8 67c9 54 8 118 3 168-21-7-52-104-66-138l-31-81-25 5c48 130 99 265 139 402 46 154 59 372 64 534 3 100-5 199-9 296-2 42-1 145-18 166-62-127-132-259-184-402-20-53-43-108-57-167-12-51-16-94-18-147-3-94-9-194-18-288-5-59-11-123 0-176 17-78 48-142 71-213l-32 6q-15 41-31 77c-16 36-24 48-34 75-5 16-6 52-17 58-12 8-34-31-43-46-22-36-44-87-62-132l-18 4q25 54 47 110c28 72 71 128 83 214 9 67 6 129 11 195q3 38 3 77c-2 47-11 40-31 17q-32-33-59-79c-24-42-36-88-45-144-5-30-11-65-11-96l3-77c0-9 2-66-7-64q1 32-1 63l-1 36c0 9 1 22-1 29-7-7-12-29-18-40q-11-19-23-34c-15-21-31-38-43-66-4-7-7-18-12-22l4 15a190 190 0 0 0 27 48c13 19 28 36 39 62q18 43 25 94c2 14 8 51 3 61-4 10-14-1-20-9-15-19-27-50-40-76q-36-78-70-160-22-57-41-118l-15 2q11 36 19 71l17 109c-54-37-115-105-170-158l-44 9c37 35 78 69 115 104 20 19 41 34 60 53a781 781 0 0 1 153 200c31 51 56 114 87 166s63 102 92 158c27 53 46 120 69 180 77 201 163 390 242 591 95 240 57 526 101 784q10 60 40 102c33 42 105-23 142-30-2-71-36-161-53-230q-42-179-76-363Z" class="st61"/><path d="m4651 1406-7 7-15 6q-9 3-18 1c9 4 19 7 28 1q8-5 12-15m77 125-12 11q-12 7-25 10-15 4-30 2c16 6 32 11 47 1q14-8 20-24m10 186-11 11q-13 7-25 10-15 4-30 2c16 6 31 11 47 1q15-8 19-24m64 116-12 11q-12 7-25 10-15 3-30 2c16 5 31 11 47 1q15-8 20-25m-130-581-7 7-15 6q-9 2-18 1c10 3 19 6 28 1q10-5 12-15m-68-75-7 7-15 6q-9 2-18 1c10 3 19 6 28 1q8-5 12-15" class="st37"/><path d="M4701 164q-5 18-12 37c-12 27-31 51-58 52 25 21 11 79-8 100a83 83 0 0 1-46 24c-9 1-24-9-31-5-5 2-8 18-12 24q-15 24-40 31c-28 7-61-3-70-36-26 24-34 43-72 39-28-3-64-19-63-57q-18 22-43 35a85 85 0 0 1-68 9c-22-7-44-38-45-66l1-6q1-17 14-29-30 6-47-8c-28-22-29-77-5-113-30-15-58-51-54-91 4-51 48-76 86-66-1-18-14-34-17-52-3-30 12-63 29-85q38-47 94-49c25-1 70-4 81 28 2-19 16-41 26-52 20-21 48-26 74-27q28-3 55 8a66 66 0 0 1 29 27q21 21 35 50c30-67 116-23 145 24q26 44 21 87 1 36-23 58c-13 23-3 26 13 51q17 26 11 58Z" class="st254"/><path d="M4686 169q-3 18-11 37c-9-9-15-25-25-33-9-7-22-6-31-14-18-14-29-48-9-67-31 29-102-2-74-53-29 11-61 20-92 19-10 0-54-8-50-30-4 22-39 74-53 36 18 19 1 76-16 90-21 18-49 3-73 7 2 46 41 81 41 127-1 50-33 59-68 67-34 8-14 34 6 58a85 85 0 0 1-68 9c-32-11-63-72-29-101-69 18-87-71-52-121-30-16-58-51-55-91 5-52 48-76 87-66-1-18-14-34-17-52-4-30 11-64 29-85q37-48 94-50c25-1 69-3 80 29 3-20 17-41 27-53 19-21 48-25 74-26 24-2 50 0 70 18q8 7 13 16 23 21 36 51c30-67 116-24 145 24q26 44 21 87 1 35-23 57c-14 24-3 27 13 51 11 19 15 36 10 59Z" class="st255"/><path d="M4233 97q-13-2-24 4-12 4-21 15a84 84 0 0 0-21 49q-1 10 1 20-9 6-15 14-9 11-13 23c-4 12-4 17-5 25s0 18 2 26 5 17 10 23 11 12 18 14 15 3 22 2q-10 0-21-4c-11-4-12-8-15-15q-6-10-7-21v-23q9-43 47-51-10-25 0-50 8-20 24-32a47 47 0 0 1 28-9l11 1q-9-9-21-10Z" class="st10"/><path d="M4455-186c-62-7-137 8-134 91-19-17-41-37-67-31-8 2-14 10-13 16-27-11-72 7-87 27-16 21-30 63-27 92 2 21 25 34 26 50-16 1-85-9-88 17-3 25 44 16 56 14-25 9-56 35-46 70 4 14 25 34 36 37 8 2 13-2 21-2-21 17-50 42-54 72-2 12 2 30 9 46-28-22-30-77-5-113-31-15-58-51-55-91 4-51 48-76 86-66 0-18-14-34-16-52-4-30 11-63 28-85q38-47 95-49c25-1 69-4 80 28 3-19 17-41 27-52 19-21 48-26 73-27q29-3 55 8Z" class="st10"/><path d="m4246 310-9 29c-10 20-25 38-47 40 21 15 9 60-6 76-9 10-25 18-37 19-7 0-19-7-25-4-3 2-6 14-9 18q-12 19-32 24c-23 5-49-2-57-28-21 19-27 33-57 30-23-2-52-14-51-43q-15 16-35 27-26 14-54 6c-18-5-35-29-36-50v-5q2-13 12-22-24 5-38-6c-22-17-24-60-4-87-24-12-46-39-44-70 4-40 39-58 70-51-1-13-12-26-14-40-3-23 9-48 23-65q31-36 76-38c20-1 56-3 64 22 2-15 14-32 22-41 15-16 38-19 59-20q23-2 44 6 6 3 12 8t11 13q18 15 28 38c25-51 94-18 117 19q21 33 17 67 1 27-18 44c-11 18-3 20 10 39q14 20 8 45" class="st254"/><path d="M4235 314q-3 14-10 29c-7-8-12-20-19-26s-18-5-26-11c-13-10-22-37-7-52-24 23-82-1-59-40q-35 14-74 15c-8-1-43-6-40-23-3 16-31 57-43 27 15 14 2 59-12 70-17 13-40 2-59 5 2 35 33 62 33 97 0 39-26 46-55 52-27 6-11 26 6 45q-27 14-55 6c-26-8-51-55-24-77-55 13-69-54-42-93-24-12-46-40-43-70 3-40 38-59 69-51-1-13-11-26-13-40-4-23 9-49 22-65q31-36 76-38c21-1 56-3 65 22 2-15 13-32 21-41 16-16 39-19 59-20s41 0 57 14l11 12q17 16 28 39c24-51 93-18 116 19q21 33 17 66 2 28-18 45c-11 18-2 20 10 39q14 20 9 45" class="st255"/><path d="M3871 259q-10-1-19 2-10 5-17 12c-7 7-9 10-11 17s-5 13-6 20l1 16q-7 5-12 11-7 8-10 17a69 69 0 0 0-3 40q2 9 8 17c6 8 9 9 15 11s12 2 17 2q-9 0-17-4-7-3-12-11-4-8-6-16l1-18q7-33 37-39-8-20 0-39 7-15 20-24a38 38 0 0 1 22-7h9q-8-6-17-8Z" class="st10"/><path d="M4050 41c-50-5-111 6-108 70-15-13-33-29-54-24-6 2-12 8-10 12-22-8-58 6-70 21-14 16-24 49-22 71 2 16 20 26 21 39-13 0-69-7-71 12-2 20 36 13 45 11-20 7-45 28-36 54 3 11 19 26 28 29q9 0 17-2c-17 13-40 33-43 55q-3 17 7 36c-23-17-24-60-4-87-25-12-47-39-44-70 3-40 38-58 69-51-1-13-11-26-13-40-3-23 9-48 23-65q30-36 75-38c21-1 56-3 65 22 2-15 13-32 22-41 15-16 38-19 59-20q22-2 44 6Z" class="st10"/><path d="M4747 748q-4 15-11 31c-12 22-30 41-55 43 24 16 11 65-7 82a81 81 0 0 1-43 20c-8 0-22-7-29-4-4 2-8 15-11 19q-14 21-38 26c-25 5-56-3-65-30-24 20-32 35-67 32-26-2-59-15-59-46q-18 17-40 29a89 89 0 0 1-64 7c-20-6-40-31-41-55v-5q1-14 14-24-28 7-44-6c-26-18-28-64-5-93-28-13-54-43-51-76 4-42 45-62 81-54-1-15-13-28-15-43-4-25 10-52 26-70q36-39 88-41c24-1 65-3 75 23 2-16 16-34 25-43 18-17 45-21 69-22q26-2 51 7a63 63 0 0 1 27 22q21 17 33 41c28-55 109-19 135 20q25 36 20 72 2 30-21 47c-13 20-3 22 12 43q16 21 10 48" class="st254"/><path d="M4733 752q-3 15-11 31c-8-8-14-21-23-28-8-6-20-5-29-11-16-12-27-40-8-56-29 25-96-1-69-43q-41 15-86 15c-10 0-50-6-47-24-3 17-36 61-50 29 17 16 2 64-14 75-20 15-46 2-69 6 2 38 39 66 39 105-1 41-31 48-64 55-32 6-13 28 6 48a89 89 0 0 1-63 7c-30-9-60-59-27-83-65 14-81-58-49-100-29-13-54-42-51-76 4-42 45-62 80-54 0-14-13-28-15-43-3-24 11-52 27-70q36-39 88-41c23-1 65-3 75 24 2-17 15-35 25-44 18-17 45-21 68-22s47 1 66 15l13 14q20 17 33 41c28-55 108-19 135 20q24 36 20 72 1 29-22 48c-12 19-2 21 12 42q16 22 10 48Z" class="st255"/><path d="M4310 693q-11-1-22 2-11 4-20 13c-9 9-10 11-13 18s-6 14-6 22q-2 9 1 17-8 5-15 11a65 65 0 0 0-16 40q-1 12 2 22 1 10 9 19 8 8 17 11 11 4 21 2-11 0-20-4c-9-4-11-6-14-12s-6-11-7-17q-1-10 1-19 7-36 43-42-9-22 0-42 8-17 23-26a48 48 0 0 1 26-8l10 1q-9-6-20-8Z" class="st10"/><path d="M4518 459c-58-6-129 6-126 75-17-14-38-31-62-25q-13 3-12 12c-25-9-67 6-81 23-16 17-28 52-25 76 1 17 22 28 23 41-14 1-79-7-82 14s42 14 53 12c-23 7-52 29-43 58 4 11 23 28 34 30 7 2 12-2 19-2-19 14-47 35-50 59q-3 18 8 39c-26-19-28-64-5-94-28-12-54-42-51-75 4-42 45-62 81-54-1-15-13-28-16-43-3-25 11-52 27-70q36-39 88-41c24-1 65-3 75 23 2-16 15-34 25-43 18-17 45-21 69-22q26-2 51 6Z" class="st10"/></g><g id="big_tree4" clip-path="url(#clippath-10)"><path d="M4116-46c-41-16-20-96-5-126 18-40 70-57 107-55 44 3 51 58 87 57l9-1c20-4 41-21 60-13 30 12 26 59 57 67 25 7 44-19 63 11 18 29-11 74 10 100 19 22 75-12 100 26 14 24 7 72-20 79 26 21 8 84-15 100-34 22-68-18-99-9-29 8-25 44-66 36-30-6-40-33-60-50-28 51-72-11-91-33-22 31-65 76-104 62q-15-7-23-21c-23 23-66 29-89 8-35-33 5-73 23-101-87-19-10-163 56-137Z" class="st190"/><path d="M4669 1149c-29-171-48-332-50-505-2-179-37-351-56-528q-12-119-18-238l-16 4 5 46c6 37 6 80 2 115-13-5-32-72-41-95l-20-55-15 3c30 89 62 181 87 275 29 106 37 254 40 366 2 68-3 136-6 202-1 29 0 99-11 114-39-87-83-177-115-275q-21-54-36-115c-7-35-10-64-11-100-2-64-6-133-11-198-4-40-7-84 0-120 10-54 29-97 44-146l-20 5-20 52q-11 24-21 51c-3 11-4 36-10 40-8 5-22-22-28-32-14-24-27-59-39-90l-11 3 30 75c17 50 44 88 51 147 6 46 4 88 7 133q3 27 2 53c-1 32-6 27-19 11q-20-23-37-53-21-43-28-99-6-33-7-66l2-52c0-7 1-46-5-44a566 566 0 0 1-1 68q1 11-1 20c-4-5-7-21-11-28q-6-13-14-23c-10-15-19-26-27-45-2-5-4-13-7-16l2 11a140 140 0 0 0 17 32q13 18 24 43 12 30 16 65c1 9 5 35 2 41-3 7-9-1-12-6-10-13-18-34-26-52l-44-110-26-80-9 1q7 24 12 49l11 74c-34-25-72-72-107-108l-27 6q36 35 72 72l37 36a513 513 0 0 1 96 136c19 36 35 79 55 114q29 53 57 108c17 37 29 82 44 123 48 138 102 267 152 405 59 165 35 360 63 537q6 41 25 70c20 28 65-16 89-21-2-49-23-111-33-157q-28-122-48-249Z" class="st294"/><path d="m4594 963-4 4q-4 4-9 5h-12q10 6 18 1 5-3 7-10m49 85-8 8q-7 5-15 7-9 2-19 1c10 4 20 7 29 1q9-6 13-17m6 127-7 8q-7 6-15 7-10 3-19 1c10 4 19 8 29 1q10-5 12-17m40 80-7 7q-8 6-16 7-9 4-19 1c11 4 20 8 30 2q8-6 12-17m-81-398-5 5q-4 3-9 4l-11 1q9 5 17 0 6-4 8-10m-43-51-4 4q-5 4-10 5h-11q9 6 18 1 5-3 7-10" class="st299"/><path d="M4626 112q-2 12-8 26c-7 18-19 34-36 36 16 13 7 53-5 68q-12 13-29 16c-5 1-15-6-19-3-3 1-5 12-8 16q-9 17-25 21c-17 5-38-2-43-25-17 17-22 30-46 27-17-2-40-12-39-38q-12 14-27 23-21 13-43 6c-14-5-27-26-28-45v-4q1-12 10-20-19 5-30-5c-17-16-18-53-3-78a68 68 0 0 1-34-62c2-35 30-52 54-45-1-12-9-23-11-36-2-20 7-43 18-58q24-32 59-34c16 0 44-2 51 20 1-13 10-28 17-36 12-14 30-17 46-18q18-2 34 5l10 7q5 5 8 12 14 14 22 34c19-46 73-16 91 17q17 29 14 59 0 25-15 39c-8 16-2 18 8 35q11 19 7 40" class="st249"/><path d="M4617 116q-2 12-8 25c-5-6-9-17-15-23-5-5-14-4-20-9-10-10-17-33-5-46-20 20-64-1-46-36q-29 12-58 13c-7-1-34-6-31-21-3 15-25 51-34 25 11 12 1 52-10 62-13 12-30 1-46 4 2 32 26 56 26 87 0 35-21 41-42 46-22 6-9 23 4 40q-21 13-43 6c-20-8-40-50-18-69-44 12-55-49-33-83a68 68 0 0 1-34-63c2-35 30-51 54-44-1-13-9-24-11-36-2-21 7-43 18-58q24-33 60-34c15-1 43-3 50 19 1-13 10-28 17-36 12-14 30-17 46-18q24-3 44 13l8 11q15 14 22 35c20-46 73-16 91 16q17 30 14 60 0 24-15 39c-8 16-2 18 8 35q12 18 7 40Z" class="st228"/><path d="M4333 67q-8-1-16 2l-13 10-8 15a61 61 0 0 0-4 33q-6 3-10 9-5 7-7 16l-4 17 1 18q2 9 7 16t11 9 14 1q-7 1-13-2-8-4-10-11-3-6-4-14v-16q6-29 29-35a50 50 0 0 1 15-56 29 29 0 0 1 25-6q-6-5-14-6" class="st14"/><path d="M4472-127c-39-5-86 5-84 62-12-12-26-26-42-21q-8 3-8 10c-17-7-45 6-55 19-10 15-18 44-17 63 2 15 16 23 16 34-9 1-53-6-55 12-2 17 28 11 35 10-15 6-34 24-28 48 3 9 15 23 23 25 4 1 8-2 12-1-13 11-31 28-33 48q-1 15 5 32c-17-15-18-53-3-77a68 68 0 0 1-34-63c2-35 30-51 54-44-1-13-9-24-11-36-2-21 7-44 18-58q24-33 59-34c16-1 44-3 51 19 1-13 10-28 17-36 12-14 30-17 46-18q18-2 34 6" class="st14"/><path d="m4341 212-6 20c-6 14-16 26-29 27 13 11 5 42-4 53q-11 10-23 12c-5 1-12-4-16-2-2 1-4 9-6 12q-8 12-20 16c-14 4-31-1-35-19-13 13-17 23-36 21-15-2-32-10-32-30q-9 12-22 19-17 10-34 4c-11-4-22-20-22-35v-3q0-8 7-15-15 4-24-4c-14-12-15-41-2-60-16-8-30-27-28-48 2-27 24-40 44-34-1-10-7-18-9-28-1-15 6-33 15-44q19-25 47-27c13 0 35-2 41 15 1-10 8-21 13-27 10-11 24-13 37-14q14-2 28 4a35 35 0 0 1 14 14q12 11 18 27c15-36 59-13 73 12q14 23 11 46 0 19-12 30c-7 13-1 14 6 27q9 14 6 31Z" class="st249"/><path d="m4334 215-6 20c-5-5-8-14-12-18-5-4-11-3-16-7-9-8-15-26-5-36-15 16-51-1-37-28q-22 10-46 11c-5-1-27-4-25-16-2 11-20 39-27 19 9 9 1 40-8 47-11 9-25 2-37 4 1 24 21 42 21 67 0 26-17 31-34 35-18 4-7 17 3 30q-17 10-34 5c-16-6-32-38-15-53-35 9-44-37-26-64-16-8-30-27-28-48 2-27 24-40 44-34-1-10-7-18-9-28q0-26 15-45 19-24 47-26c13 0 35-2 41 15 1-10 8-22 13-27q16-15 37-14 19-3 35 9l7 9q12 11 18 26c15-35 59-12 73 13q14 23 11 46 0 19-12 30c-7 13-1 14 6 27q9 14 6 31" class="st228"/><path d="M4106 177q-7-1-12 2-6 3-11 8l-7 12q-3 6-3 14v11q-4 2-8 7l-6 12a51 51 0 0 0-1 27q0 6 5 12c5 6 5 6 9 7l11 1q-6 1-11-2-6-3-8-8t-3-11v-12q4-22 24-27-5-14 0-27 4-9 12-16 4-3 9-4l5-1 5 1q-4-4-10-6Z" class="st14"/><path d="M4218 28c-31-4-70 4-68 48-9-9-20-20-34-16q-7 3-6 8c-14-6-36 4-44 14-8 11-15 33-13 49 1 11 12 17 12 26-7 1-42-5-44 9-1 13 23 8 28 7-12 5-28 19-22 37 2 7 12 18 18 20q4 0 10-1c-11 8-25 22-27 37q-1 11 4 25c-14-12-15-41-2-60-16-8-30-27-28-48 2-27 24-40 44-34-1-10-7-18-9-28q0-26 15-45 19-24 47-26c13 0 35-2 41 15 1-10 8-21 13-27q16-15 37-14 14-2 28 4Z" class="st14"/><path d="m4655 512-7 21c-7 15-19 29-34 30 14 11 6 44-5 56-6 7-18 12-27 13-5 1-14-5-18-3-3 2-5 11-7 14q-9 13-23 18c-16 3-36-2-41-21-16 14-20 24-42 22-17-2-38-10-37-32q-11 12-26 20-19 10-39 5c-13-4-26-22-26-37v-4q1-9 9-16-18 4-28-5c-16-12-17-43-3-64-18-8-34-29-32-51 3-29 28-43 51-37-1-10-9-19-10-30-2-17 6-36 17-48q21-27 55-28c14 0 40-2 47 16 1-11 9-23 15-29q19-16 43-16 18-1 32 5a38 38 0 0 1 17 15q13 12 21 29c18-38 68-14 85 13q15 24 12 49 1 20-13 33c-8 13-2 15 7 29q10 14 7 33Z" class="st249"/><path d="m4646 515-7 21c-5-5-8-15-14-19-5-4-13-3-19-8-10-8-16-27-5-38-18 17-60-1-43-30q-26 11-54 11c-6 0-31-4-29-17-2 12-22 42-31 20 10 11 1 44-9 51-13 10-29 2-43 4 1 26 24 46 24 72 0 29-19 33-40 38-20 4-8 19 4 33q-19 10-40 5c-19-6-37-41-17-57-41 10-51-40-31-69-17-9-34-29-32-51 3-29 29-43 51-37-1-11-8-20-10-30-2-17 7-36 17-48q22-27 55-28c15-1 41-2 47 16 1-11 10-23 16-30 11-12 28-14 43-15q22-2 41 10l8 10q12 11 20 28c18-37 68-13 85 14q15 25 13 49 1 20-14 33c-8 13-1 15 8 28q9 16 6 33Z" class="st228"/><path d="M4381 474q-8-1-14 2-8 4-12 9-6 6-9 12a45 45 0 0 0-3 27l-9 8q-5 5-7 13-3 7-3 14-1 7 1 15 2 7 6 13 4 5 11 8h12q-6 1-12-2t-9-8q-4-6-4-12v-13q5-25 28-29-6-14-1-29 5-10 15-18a29 29 0 0 1 22-4q-5-4-12-6" class="st14"/><path d="M4511 314c-36-4-80 4-78 51-11-9-24-21-40-17q-7 2-7 9c-16-6-42 4-51 15a84 84 0 0 0-16 52c1 12 15 19 15 29-9 0-49-5-51 9s26 9 33 8c-15 5-33 20-27 40 2 7 14 19 21 21q6 0 12-1c-12 9-29 24-31 40q-1 12 5 26c-17-12-18-43-3-64-18-8-34-29-32-51 2-29 28-43 50-37 0-10-8-20-9-30-3-17 6-36 16-48q22-27 55-28c15 0 41-2 47 16 2-11 10-23 16-30 11-11 28-14 43-15q17-1 32 5" class="st14"/></g></g></svg>