<?xml version="1.0" standalone="no"?>
<!DOCTYPE svg PUBLIC "-//W3C//DTD SVG 20010904//EN"
 "http://www.w3.org/TR/2001/REC-SVG-20010904/DTD/svg10.dtd">
<svg version="1.0" xmlns="http://www.w3.org/2000/svg"
 width="200.000000pt" height="200.000000pt" viewBox="0 0 200.000000 200.000000"
 preserveAspectRatio="xMidYMid meet">
<metadata>
Created by potrace 1.11, written by Peter Selinger 2001-2013
</metadata>
<g transform="translate(0.000000,200.000000) scale(0.100000,-0.100000)"
fill="#000000" stroke="none">
<path d="M0 1853 l0 -148 88 -39 c48 -22 92 -43 98 -48 6 -4 10 -30 9 -58 -1
-32 2 -49 9 -47 12 4 56 -40 56 -57 0 -6 4 -5 9 2 6 10 10 7 15 -12 5 -19 13
-26 31 -26 19 0 25 -5 25 -21 0 -13 4 -18 11 -13 8 5 10 -1 7 -20 -3 -14 -1
-26 5 -26 5 0 4 -7 -3 -15 -7 -8 -10 -15 -7 -15 4 0 0 -19 -8 -42 -9 -27 -10
-36 -2 -23 7 11 31 38 54 60 34 34 43 51 52 100 6 32 17 62 24 67 6 4 55 8
107 9 65 1 82 4 55 8 -22 3 -85 3 -140 -1 -55 -4 -104 -3 -108 2 -5 4 -26 5
-48 3 -34 -5 -39 -3 -39 14 0 37 58 70 75 43 3 -5 25 -8 48 -6 23 3 47 5 53 5
6 1 34 39 62 85 59 96 133 168 195 188 59 19 294 16 367 -5 30 -9 73 -21 95
-27 57 -17 118 -71 175 -155 47 -69 50 -78 50 -137 0 -36 9 -89 20 -123 12
-33 23 -78 26 -100 4 -22 12 -44 19 -50 6 -5 15 -22 19 -37 7 -29 26 -39 26
-14 0 17 39 32 49 19 13 -14 51 -138 51 -166 0 -14 3 -28 8 -30 4 -2 47 2 96
9 95 15 106 13 106 -16 0 -15 -11 -19 -70 -25 -57 -6 -70 -10 -70 -24 0 -14
-7 -17 -31 -13 l-30 4 25 -27 c14 -15 30 -24 35 -20 7 3 11 -3 11 -14 0 -13
-7 -21 -17 -22 -10 -1 -25 -2 -33 -3 -11 -1 -15 -13 -15 -49 1 -36 -3 -46 -13
-42 -8 3 -16 5 -18 5 -2 0 -4 9 -4 20 0 11 -5 20 -11 20 -6 0 -8 -8 -6 -17 6
-21 -14 -104 -26 -106 -4 -1 -9 46 -10 106 -3 80 0 110 10 118 23 20 14 30
-12 13 -32 -21 -65 -10 -65 21 0 25 -25 41 -33 21 -4 -10 -42 -15 -134 -20
-235 -13 -223 -14 -278 23 -47 31 -48 31 -19 4 52 -47 72 -62 78 -56 3 4 6 2
6 -4 0 -6 33 -8 85 -5 102 5 167 -9 217 -49 20 -16 39 -29 42 -29 12 0 5 39
-9 53 -11 12 -12 17 -2 25 9 8 16 6 25 -9 9 -13 19 -18 32 -14 16 5 20 -1 27
-42 4 -26 8 -89 8 -140 0 -79 -3 -95 -20 -112 -37 -37 -46 -51 -40 -61 3 -6 2
-10 -4 -10 -11 0 -21 -28 -26 -68 -1 -14 -11 -33 -21 -41 -11 -9 -19 -23 -19
-31 0 -8 -6 -14 -13 -12 -6 1 -12 -6 -12 -17 0 -10 -7 -24 -15 -31 -12 -10
-16 -8 -25 15 -9 23 -5 38 19 90 17 35 35 66 41 70 5 3 10 14 10 24 0 10 9 26
19 35 15 13 17 24 12 44 -5 15 -6 34 -3 42 3 9 -4 6 -17 -7 -13 -14 -18 -28
-14 -39 4 -12 3 -15 -5 -10 -7 4 -12 3 -12 -3 0 -5 -14 -39 -30 -75 -17 -36
-33 -79 -36 -95 -4 -17 -12 -31 -19 -31 -8 0 -15 -6 -18 -12 -2 -7 -4 6 -3 30
3 65 -24 71 -38 9 -4 -16 -3 -26 1 -24 5 3 9 -3 9 -14 0 -10 -5 -19 -11 -19
-5 0 -4 -4 4 -9 10 -6 11 -17 6 -37 -8 -27 -9 -27 -12 -6 -3 12 -9 22 -14 22
-5 0 -9 5 -9 11 0 6 -7 17 -15 25 -13 14 -15 13 -13 -3 0 -10 0 -34 -1 -53 -2
-34 -2 -34 -14 -12 -14 24 -29 20 -20 -6 4 -9 2 -13 -5 -8 -6 4 -12 -3 -14
-16 -3 -21 -4 -21 -21 -4 -17 18 -19 18 -37 1 -11 -10 -20 -14 -20 -10 0 4 -9
0 -20 -10 -14 -13 -20 -14 -20 -5 0 9 -8 6 -20 -8 -12 -12 -24 -22 -28 -22 -5
0 -14 -16 -21 -36 -7 -20 -16 -32 -20 -27 -3 5 -14 12 -24 16 -15 6 -17 3 -12
-12 3 -11 0 -21 -9 -24 -19 -8 -25 11 -15 47 l8 28 -24 -26 c-13 -14 -28 -26
-33 -26 -13 0 -24 29 -16 41 3 5 -2 16 -10 25 -15 14 -17 13 -26 -10 -5 -14
-12 -26 -16 -26 -3 0 -4 7 0 15 3 8 1 15 -5 15 -6 0 -8 4 -4 9 3 5 1 12 -5 16
-6 4 -7 11 -4 17 5 7 1 9 -9 5 -10 -3 -17 -2 -17 3 0 6 -8 10 -19 10 -18 0
-35 31 -31 59 1 7 -3 10 -9 6 -6 -3 -11 0 -11 7 0 8 -9 14 -20 14 -13 0 -20
-7 -20 -18 0 -58 -97 49 -177 197 -25 46 -27 59 -28 165 0 63 4 146 8 184 l9
69 -51 -6 c-28 -3 -53 -2 -56 4 -10 16 -23 10 -31 -13 -8 -28 -22 -38 -51 -38
-30 0 -40 36 -17 62 12 13 28 18 45 16 24 -4 26 -1 27 33 l2 37 -48 -1 -47 -2
-3 44 c-3 40 0 47 29 70 47 37 81 50 102 39 14 -7 17 -4 17 14 0 32 -50 52
-77 32 -24 -18 -31 -17 -29 4 1 12 -6 17 -24 17 -18 0 -25 -5 -25 -19 0 -11
-5 -21 -12 -23 -18 -6 -55 16 -47 29 4 5 0 14 -7 19 -11 7 -10 9 4 9 24 0 21
17 -5 23 -29 8 -38 1 -38 -30 0 -19 -4 -24 -16 -19 -9 3 -18 6 -20 6 -2 0 -4
16 -4 36 0 24 -4 34 -12 32 -10 -4 -14 -146 -16 -656 l-2 -652 331 0 c323 0
331 1 348 21 l16 20 27 -20 c25 -20 38 -21 268 -21 l243 0 46 47 c52 53 126
170 144 229 l12 39 3 -49 c2 -26 -4 -68 -12 -93 -9 -25 -14 -48 -12 -52 2 -3
0 -28 -4 -56 -4 -27 -5 -54 -3 -59 7 -10 33 49 33 74 0 11 5 31 12 47 6 15 10
37 9 48 -3 36 26 -24 51 -102 l22 -73 219 0 c196 0 218 2 213 16 -3 9 -6 31
-6 50 0 31 -3 34 -30 34 -28 0 -30 3 -30 35 0 19 5 35 11 35 6 0 8 9 4 21 -5
15 -4 19 4 15 6 -4 11 -16 11 -27 0 -10 5 -19 11 -19 5 0 8 -4 5 -9 -9 -14 4
-41 20 -41 8 0 14 5 14 10 0 6 -5 10 -12 10 -6 0 -8 3 -5 7 4 3 2 13 -5 20 -9
11 -9 17 3 24 12 8 11 11 -3 23 -12 9 -22 39 -29 92 -7 47 -18 84 -27 92 -14
11 -14 12 -1 12 26 0 12 57 -16 64 -20 5 -177 -9 -179 -16 -1 -2 -6 -12 -12
-23 -13 -22 -71 -30 -93 -12 -12 10 -13 -1 -7 -73 4 -47 10 -94 13 -105 5 -17
4 -18 -9 -7 -17 13 -33 155 -22 196 5 22 10 24 37 20 18 -2 26 -2 20 2 -20 9
-15 24 8 24 19 0 21 5 17 38 -4 31 0 41 26 67 26 25 28 30 13 33 -19 4 -24 22
-5 22 6 0 2 10 -10 23 -29 31 -10 57 42 55 38 -1 73 20 48 29 -10 4 -7 9 8 20
17 12 19 18 9 29 -13 16 -9 27 6 16 14 -10 35 -72 24 -72 -5 0 -9 -4 -9 -9 0
-5 14 -8 32 -7 l32 1 14 -85 c11 -74 18 -125 21 -152 1 -5 6 -8 12 -8 10 0 7
49 -7 125 -2 11 -9 45 -14 75 -6 30 -13 89 -15 130 l-4 75 14 -70 c13 -68 48
-308 85 -585 l18 -135 1 653 c1 358 -3 652 -7 652 -5 0 -22 -6 -38 -14 -16 -7
-48 -16 -71 -19 -36 -4 -43 -2 -43 12 0 13 15 20 68 31 37 7 73 15 80 18 9 3
12 71 12 293 l0 289 -1000 0 -1000 0 0 -147z m460 -119 c11 -12 11 -18 -2 -31
-18 -18 -53 -10 -62 14 -12 31 41 45 64 17z m30 -28 c0 -2 -8 -10 -17 -17 -16
-13 -17 -12 -4 4 13 16 21 21 21 13z m1420 -96 c13 -9 12 -12 -5 -26 -23 -17
-56 -15 -63 4 -2 6 7 16 20 21 30 12 30 12 48 1z m-1690 -74 c-7 -7 -10 1 -9
25 0 32 1 33 10 10 6 -16 6 -28 -1 -35z m1694 18 c22 -8 20 -21 -4 -29 -28 -9
-44 3 -29 21 13 16 12 16 33 8z m-1547 -110 c-3 -3 -12 -4 -19 -1 -8 3 -5 6 6
6 11 1 17 -2 13 -5z m1271 -121 c2 -9 -7 -13 -27 -13 -31 0 -42 14 -18 23 19
8 40 3 45 -10z m132 -113 c0 -5 -11 -10 -25 -10 -14 0 -25 5 -25 10 0 6 11 10
25 10 14 0 25 -4 25 -10z m147 -272 c-3 -8 -6 -5 -6 6 -1 11 2 17 5 13 3 -3 4
-12 1 -19z m-141 -1 c4 -4 -5 -7 -19 -7 -15 0 -27 4 -27 10 0 11 35 8 46 -3z
m64 -34 c6 -21 13 -64 17 -95 5 -47 3 -58 -9 -58 -15 0 -38 71 -38 120 0 20
-5 30 -15 30 -8 0 -15 5 -15 10 0 6 7 10 15 10 8 0 15 5 15 10 0 25 20 6 30
-27z m37 5 c-3 -7 -5 -2 -5 12 0 14 2 19 5 13 2 -7 2 -19 0 -25z m-1703 -13
c-4 -8 -1 -15 7 -15 7 0 9 -3 6 -6 -8 -8 -37 14 -37 27 0 5 7 9 15 9 9 0 12
-6 9 -15z m1566 -40 c0 -5 -5 -3 -10 5 -5 8 -10 20 -10 25 0 6 5 3 10 -5 5 -8
10 -19 10 -25z m204 -90 c4 -47 3 -52 -4 -25 -5 19 -11 62 -14 95 -4 47 -3 52
4 25 5 -19 11 -62 14 -95z m-1595 47 c-6 -15 -9 -29 -8 -32 1 -3 -5 -6 -14 -8
-24 -5 -23 53 0 67 26 14 34 4 22 -27z m1351 8 c0 -5 -4 -10 -9 -10 -6 0 -13
5 -16 10 -3 6 1 10 9 10 9 0 16 -4 16 -10z m71 -53 c-13 -13 -26 -3 -16 12 3
6 11 8 17 5 6 -4 6 -10 -1 -17z m-116 -67 c3 -6 0 -17 -8 -25 -15 -15 -22 -11
-42 24 -6 10 -4 12 5 6 10 -6 12 -4 7 9 -5 14 -3 15 13 6 10 -5 22 -15 25 -20z
m-65 -86 c0 -17 -26 -19 -36 -2 -5 8 -2 9 9 5 20 -8 22 3 5 23 -11 12 -10 12
5 1 9 -7 17 -20 17 -27z m-50 -109 c0 -18 5 -25 20 -25 35 0 21 -18 -19 -25
-38 -6 -62 -32 -42 -45 6 -3 9 -14 9 -25 -1 -11 2 -33 6 -50 l7 -29 -21 19
c-12 11 -26 27 -31 36 -10 19 7 89 21 89 6 0 10 9 10 20 0 22 20 60 32 60 5 0
8 -11 8 -25z m90 5 c0 -11 -4 -20 -9 -20 -5 0 -11 9 -14 20 -3 13 0 20 9 20 8
0 14 -9 14 -20z m126 -95 c2 -17 -3 -26 -17 -30 -22 -7 -42 5 -21 12 6 3 12
13 12 22 0 19 10 34 18 26 3 -3 6 -16 8 -30z m-1518 16 c10 -6 6 -10 -15 -14
-33 -6 -51 2 -32 14 18 11 30 11 47 0z m69 -7 c-3 -3 -12 -4 -19 -1 -8 3 -5 6
6 6 11 1 17 -2 13 -5z m-110 -61 c-3 -10 -5 -4 -5 12 0 17 2 24 5 18 2 -7 2
-21 0 -30z m1526 -113 c-4 -16 -8 -18 -19 -9 -16 13 -10 29 11 29 8 0 11 -7 8
-20z m-1273 -30 c0 -5 -5 -10 -11 -10 -5 0 -7 5 -4 10 3 6 8 10 11 10 2 0 4
-4 4 -10z m1288 -20 c28 0 52 -4 52 -10 0 -11 -108 -14 -134 -4 -25 9 -19 27
7 20 12 -3 46 -6 75 -6z m-738 -18 c0 -5 -7 -17 -15 -28 -15 -19 -20 -8 -9 20
6 17 24 22 24 8z m790 -44 c0 -12 -92 -6 -97 7 -2 6 17 9 47 7 27 -2 50 -8 50
-14z"/>
<path d="M140 1610 c-13 -8 -13 -10 2 -10 9 0 20 5 23 10 8 13 -5 13 -25 0z"/>
<path d="M785 1557 c-7 -16 -19 -22 -42 -22 -20 0 -33 -5 -33 -12 0 -16 71
-62 86 -56 13 5 17 82 6 100 -5 8 -11 5 -17 -10z"/>
<path d="M1370 1541 c-24 -13 -92 -20 -270 -27 -91 -3 -176 -8 -190 -9 -14 -2
-31 -4 -38 -4 -8 -1 -10 -9 -6 -26 6 -24 -10 -37 -18 -15 -2 7 -14 7 -37 0
-25 -7 -40 -6 -63 6 -16 9 -32 13 -36 10 -3 -3 -1 -6 5 -6 6 0 12 -43 15 -107
4 -68 12 -122 22 -145 19 -43 21 -105 5 -158 -16 -52 -68 -112 -102 -115 -16
-2 -33 -8 -40 -13 -21 -16 -60 -21 -105 -13 -60 12 -77 5 -79 -28 l-2 -28 37
13 c20 7 67 13 105 14 101 0 132 23 185 139 33 71 48 92 67 97 32 8 97 -4 90
-16 -11 -19 7 -57 41 -83 l34 -28 -12 28 c-6 15 -21 37 -33 48 -21 18 -22 26
-15 82 4 35 15 69 24 78 18 18 20 111 4 122 -6 3 -9 -5 -8 -18 5 -63 -1 -91
-26 -114 -20 -19 -25 -32 -22 -54 l4 -29 -59 -4 -59 -3 5 60 c5 47 2 69 -13
100 -10 22 -22 61 -25 86 -7 44 -6 47 19 51 15 3 29 1 32 -4 3 -4 10 -5 16 -2
6 4 14 1 18 -6 7 -11 16 -10 45 4 20 10 45 16 56 13 14 -4 19 0 19 14 0 11 7
22 16 26 11 4 12 8 4 13 -20 13 306 21 334 9 20 -10 30 -9 51 5 14 9 25 23 25
31 0 17 0 17 -20 6z"/>
<path d="M1196 1432 c9 -36 20 -49 47 -55 12 -2 31 -8 41 -12 14 -6 17 -5 12
3 -5 8 -2 10 9 5 12 -4 13 -8 5 -13 -9 -5 -9 -9 -1 -14 6 -4 16 -4 23 0 6 4 8
3 4 -4 -3 -6 1 -17 9 -26 9 -8 27 -35 41 -58 l24 -43 -4 47 c-5 62 -47 150
-82 175 -20 13 -46 20 -82 21 -52 1 -52 1 -46 -26z m179 -112 c3 -6 -1 -7 -9
-4 -18 7 -21 14 -7 14 6 0 13 -4 16 -10z"/>
<path d="M1107 1315 c-21 -7 -42 -17 -45 -21 -4 -4 2 -4 13 1 11 4 40 13 65
20 25 7 36 13 25 14 -11 0 -37 -6 -58 -14z"/>
<path d="M1109 1293 c-62 -26 -109 -85 -109 -138 0 -34 32 -106 37 -84 3 12
11 15 25 11 14 -3 19 -1 14 6 -4 8 0 12 11 11 32 -1 127 -25 156 -39 26 -13
27 -14 10 -34 -9 -12 0 -5 21 16 32 30 40 44 44 86 3 34 -1 60 -13 85 -32 67
-131 107 -196 80z m122 -53 c14 0 41 -48 34 -60 -4 -6 -21 3 -45 22 -37 31
-44 56 -13 44 8 -3 19 -6 24 -6z m-83 -62 c-11 -21 -24 -35 -29 -32 -21 13 2
70 29 70 19 0 19 0 0 -38z m13 -50 c0 -10 2 -10 6 0 5 12 53 18 53 6 0 -12
-29 -34 -45 -34 -9 0 -26 5 -37 11 -17 9 -18 13 -7 20 20 12 29 11 30 -3z"/>
<path d="M478 1275 c-61 -41 -98 -144 -63 -178 8 -8 12 -17 9 -20 -3 -2 2 -7
10 -10 12 -5 15 0 13 16 -1 12 -11 25 -22 29 -19 6 -19 6 3 13 16 5 22 15 22
36 0 16 -4 29 -10 29 -20 0 -9 19 31 51 30 23 43 29 52 20 8 -8 5 -17 -10 -33
-33 -37 -40 -108 -11 -108 6 0 4 7 -3 17 -12 14 -12 16 1 11 8 -3 14 -13 13
-24 -1 -10 3 -26 8 -36 7 -14 6 -18 -5 -18 -23 0 -28 -17 -10 -35 12 -11 19
-13 24 -6 7 13 32 19 108 28 l54 6 -5 56 c-7 80 -18 121 -31 122 -6 0 -29 1
-51 2 -27 1 -40 7 -41 17 -1 8 -2 21 -3 28 -2 20 -44 14 -83 -13z m180 -78
c16 -11 16 -27 -1 -27 -7 0 -23 -9 -34 -20 -15 -13 -23 -16 -26 -7 -3 9 -7 9
-17 0 -20 -19 -1 -33 46 -33 24 0 44 -2 44 -4 0 -2 3 -13 7 -23 6 -16 5 -16
-11 -4 -13 11 -20 11 -28 3 -7 -7 -32 -11 -57 -10 -39 1 -41 2 -13 5 31 4 33
5 15 18 -10 8 -25 15 -33 15 -9 0 -16 11 -17 30 -2 25 4 34 28 49 31 19 74 22
97 8z"/>
<path d="M1431 1191 c-18 -14 -35 -18 -58 -14 -26 4 -33 2 -33 -11 0 -9 8 -16
20 -16 10 0 23 -6 27 -13 4 -6 25 -18 46 -25 30 -11 41 -11 52 -2 17 14 20 70
5 70 -5 0 -9 5 -7 12 4 20 -26 19 -52 -1z m45 -62 c18 -7 18 -8 -1 -8 -27 -1
-45 17 -45 44 1 18 2 18 14 -4 8 -14 22 -28 32 -32z"/>
<path d="M296 1161 c-3 -5 1 -11 9 -15 8 -3 15 -1 15 4 0 13 -18 22 -24 11z"/>
<path d="M282 1120 c0 -14 2 -19 5 -12 2 6 2 18 0 25 -3 6 -5 1 -5 -13z"/>
<path d="M360 1133 c0 -4 5 -15 10 -23 8 -13 10 -13 10 2 0 9 -4 20 -10 23 -5
3 -10 3 -10 -2z"/>
<path d="M721 1084 c-31 -40 -25 -48 9 -12 32 34 35 38 21 38 -5 0 -19 -12
-30 -26z"/>
<path d="M232 1090 c2 -7 13 -20 25 -27 19 -12 24 -11 49 11 22 19 25 25 12
26 -9 0 -20 -4 -23 -10 -7 -11 -33 -9 -54 4 -9 6 -12 5 -9 -4z"/>
<path d="M1597 1080 c-3 -11 -1 -20 4 -20 5 0 9 9 9 20 0 11 -2 20 -4 20 -2 0
-6 -9 -9 -20z"/>
<path d="M985 1070 c3 -5 8 -10 11 -10 2 0 4 5 4 10 0 6 -5 10 -11 10 -5 0 -7
-4 -4 -10z"/>
<path d="M1465 1033 c4 -10 8 -27 10 -38 1 -18 6 -21 35 -16 6 0 8 12 4 27 -4
17 -2 29 7 35 9 6 1 9 -25 9 -32 0 -37 -3 -31 -17z"/>
<path d="M480 1026 c0 -2 8 -10 18 -17 15 -13 16 -12 3 4 -13 16 -21 21 -21
13z"/>
<path d="M664 998 l-19 -23 23 19 c21 18 27 26 19 26 -2 0 -12 -10 -23 -22z"/>
<path d="M1251 993 c-19 -12 -47 -23 -62 -23 -16 0 -29 -4 -29 -10 0 -13 -3
-13 57 5 28 8 56 22 63 30 20 25 8 24 -29 -2z"/>
<path d="M429 974 c-11 -14 -10 -16 6 -13 11 1 38 -3 60 -9 22 -7 47 -12 55
-11 8 0 -7 7 -33 14 -26 7 -54 18 -61 24 -10 8 -17 7 -27 -5z"/>
<path d="M1033 896 c7 -14 13 -23 15 -21 7 6 -9 45 -18 45 -4 0 -3 -11 3 -24z"/>
<path d="M1040 846 c0 -8 -6 -21 -13 -28 -13 -13 -18 -58 -6 -58 3 0 13 8 22
18 18 20 23 82 7 82 -5 0 -10 -6 -10 -14z"/>
<path d="M930 831 c-8 -6 -19 -7 -25 -4 -5 4 -7 3 -3 -2 4 -4 -7 -19 -25 -32
-17 -13 -33 -19 -35 -14 -2 5 -18 7 -35 4 -24 -4 -37 0 -51 16 -31 34 -56 22
-56 -26 0 -12 3 -13 15 -3 8 7 23 9 37 4 13 -4 24 -6 26 -5 1 1 14 -7 29 -19
32 -25 55 -25 78 0 10 11 27 20 37 20 28 0 78 28 78 44 0 23 -43 33 -70 17z"/>
<path d="M1600 820 c0 -5 5 -10 10 -10 6 0 10 5 10 10 0 6 -4 10 -10 10 -5 0
-10 -4 -10 -10z"/>
<path d="M900 732 c0 -7 -7 -12 -15 -12 -12 0 -10 -7 9 -27 14 -15 23 -30 20
-34 -2 -4 0 -10 5 -14 6 -3 8 -12 5 -19 -3 -8 0 -17 7 -22 8 -4 10 -3 5 4 -4
7 -5 16 -1 22 8 13 35 1 35 -16 0 -8 4 -14 9 -14 11 0 2 38 -10 45 -4 3 -6 12
-3 20 4 10 -2 13 -21 12 -21 -2 -28 3 -31 19 -3 18 1 20 21 16 20 -3 24 -1 19
12 -3 9 -10 16 -16 16 -5 0 -6 -4 -3 -10 9 -14 -8 -13 -23 2 -9 9 -12 9 -12 0z"/>
<path d="M767 724 c-8 -8 1 -24 13 -24 4 0 10 7 14 15 5 15 -14 21 -27 9z"/>
<path d="M990 724 c0 -5 6 -19 14 -29 12 -16 11 -21 -1 -33 -12 -13 -11 -16 7
-29 12 -9 28 -12 38 -7 9 4 20 6 25 6 4 -1 7 3 7 9 0 5 4 8 9 5 5 -4 12 0 14
6 3 7 4 0 4 -17 -2 -33 -21 -60 -36 -50 -6 3 -14 -2 -19 -11 -7 -12 -21 -17
-48 -16 -21 1 -66 -5 -101 -13 -59 -14 -164 -12 -203 2 -8 4 -22 5 -31 4 -13
-1 -16 6 -13 40 3 35 1 39 -11 29 -11 -9 -12 -17 -4 -31 14 -27 -6 -24 -26 4
-13 19 -17 20 -25 7 -5 -8 -10 -10 -10 -4 0 5 5 15 12 22 9 9 9 12 -1 12 -10
0 -11 3 -2 14 7 8 8 17 3 20 -5 3 -15 -6 -22 -19 -7 -14 -19 -25 -26 -25 -17
0 -27 -32 -12 -42 7 -4 9 -8 4 -8 -5 0 -3 -7 4 -15 7 -8 9 -15 5 -15 -4 0 3
-8 16 -19 22 -18 23 -18 43 0 24 23 24 23 67 6 42 -17 196 -21 249 -7 21 6 62
11 92 11 29 1 85 11 125 24 70 23 104 23 131 2 17 -13 22 -7 27 34 4 36 -16
69 -43 69 -9 0 -24 8 -35 18 -19 16 -20 16 -14 -1 4 -11 3 -16 -3 -12 -6 3
-10 13 -10 21 0 16 -26 19 -35 4 -3 -5 -2 -10 3 -10 5 0 9 -7 9 -15 0 -11 -4
-12 -11 -5 -5 5 -18 10 -28 10 -10 0 -18 6 -18 14 0 8 -7 17 -16 20 -26 10
-28 7 -10 -13 16 -17 15 -18 -9 -15 -21 2 -24 0 -15 -11 8 -10 8 -15 0 -20
-15 -9 -20 -4 -22 28 -1 14 -4 24 -6 22 -3 -2 -13 6 -23 18 -10 12 -18 17 -19
11z m150 -134 c0 -5 -2 -10 -4 -10 -3 0 -8 5 -11 10 -3 6 -1 10 4 10 6 0 11
-4 11 -10z"/>
<path d="M862 651 c-3 -50 12 -76 29 -50 12 19 11 32 -1 24 -6 -4 -10 10 -10
34 0 58 -14 51 -18 -8z"/>
<path d="M760 686 c0 -2 7 -7 16 -10 8 -3 12 -2 9 4 -6 10 -25 14 -25 6z"/>
<path d="M620 650 c0 -5 5 -10 11 -10 5 0 7 5 4 10 -3 6 -8 10 -11 10 -2 0 -4
-4 -4 -10z"/>
<path d="M705 640 c-3 -6 1 -7 9 -4 18 7 21 14 7 14 -6 0 -13 -4 -16 -10z"/>
<path d="M773 628 c-22 -29 -23 -36 -3 -31 11 3 17 9 14 14 -3 5 0 9 6 9 6 0
13 -7 16 -15 4 -8 10 -15 15 -15 5 0 2 11 -7 25 -18 28 -27 31 -41 13z"/>
<path d="M1742 595 c1 -25 6 -35 17 -35 13 0 13 2 2 9 -9 6 -10 11 -2 15 16
10 13 46 -4 46 -10 0 -14 -10 -13 -35z"/>
<path d="M1830 595 c7 -9 15 -13 17 -11 7 7 -7 26 -19 26 -6 0 -6 -6 2 -15z"/>
<path d="M1781 583 c0 -10 3 -13 5 -6 3 7 12 9 21 6 11 -4 14 -2 9 5 -11 18
-36 14 -35 -5z"/>
<path d="M1750 525 c0 -24 2 -24 75 -24 66 0 75 3 75 19 0 24 -19 30 -91 30
-56 0 -59 -1 -59 -25z"/>
<path d="M1086 441 c-3 -4 -29 -11 -58 -15 -29 -4 -64 -9 -78 -12 -14 -2 -45
-4 -69 -4 -45 1 -100 -16 -113 -34 -5 -7 -8 -6 -8 2 0 8 -5 10 -12 6 -9 -5 -8
-2 1 9 18 23 8 32 -18 17 -24 -12 -25 -19 -8 -41 18 -23 53 -40 71 -33 9 3 16
2 16 -4 0 -12 18 -11 38 2 16 10 28 -1 34 -29 4 -18 6 -18 15 5 13 30 56 56
74 45 9 -6 11 -2 7 13 -8 27 5 36 32 22 16 -9 25 -6 47 15 15 14 33 25 40 25
7 0 13 5 13 10 0 12 -17 13 -24 1z"/>
<path d="M520 434 c0 -6 7 -19 15 -30 8 -10 14 -14 14 -9 0 6 -6 19 -14 29 -8
11 -15 15 -15 10z"/>
</g>
</svg>
